%
M48
M72
T01C0.0240
T02C0.0320
T03C0.0360
T04C0.0394
T05C0.0400
T06C0.0900
T07C0.1083
T08C0.1250
%
T01
X12804Y8735
X11274Y12290
X11814Y15080
X11274Y18230
X10194Y19805
X11949Y20210
X9474Y22325
X6774Y17780
X18834Y18770
X19644Y19760
X21309Y19130
X20634Y16025
X25089Y14000
X24999Y19130
X18879Y4145
X19734Y1850
T02
X19234Y5680
X18234Y5680
X17234Y5680
X17234Y7180
X16234Y7180
X15234Y7180
X14234Y7180
X13234Y7180
X12234Y7180
X11234Y7180
X10234Y7180
X9234Y7180
X8234Y7180
X7234Y7180
X6234Y12180
X6234Y13180
X7234Y13180
X8234Y13180
X9234Y13180
X10234Y13180
X11234Y13180
X12234Y13180
X13234Y13180
X14234Y13180
X15234Y13180
X16234Y13180
X17234Y13180
X18234Y13180
X19234Y13180
X20234Y13180
X21234Y13180
X22234Y13180
X23234Y13180
X24234Y13180
X25234Y13180
X26234Y13180
X23734Y14680
X22734Y14680
X21734Y14680
X20234Y14680
X19234Y14680
X18234Y14680
X17234Y14680
X16234Y14680
X15234Y14680
X14234Y14680
X13234Y14680
X10734Y15180
X7734Y15180
X7734Y18180
X10734Y18180
X13234Y17680
X14234Y17680
X15234Y17680
X16234Y17680
X17234Y17680
X18234Y17680
X19234Y17680
X20234Y17680
X21734Y17680
X22734Y17680
X23734Y17680
X23234Y7180
X24234Y7180
X25234Y7180
X26234Y7180
X22234Y7180
X21234Y7180
X20234Y7180
X19234Y7180
X18234Y7180
X20234Y5680
X21234Y5680
X22234Y5680
T03
X2734Y5680
X2734Y4680
X2734Y20680
X2734Y21680
T04
X5030Y21849
X6030Y21849
X6030Y20849
X5030Y20849
X7030Y20849
X8030Y20849
X9030Y20849
X10030Y20849
X11030Y20849
X12030Y20849
X13030Y20849
X14030Y20849
X15030Y20849
X16030Y20849
X17030Y20849
X18030Y20849
X19030Y20849
X20030Y20849
X21030Y20849
X22030Y20849
X23030Y20849
X24030Y20849
X24030Y21849
X23030Y21849
X22030Y21849
X21030Y21849
X20030Y21849
X19030Y21849
X18030Y21849
X17030Y21849
X16030Y21849
X15030Y21849
X14030Y21849
X13030Y21849
X12030Y21849
X11030Y21849
X10030Y21849
X9030Y21849
X8030Y21849
X7030Y21849
T05
X14234Y19680
X15234Y19680
X26234Y18680
X26234Y17680
X26234Y16680
X26234Y15680
X26234Y14680
X23234Y3180
X22234Y3180
X21234Y3180
X20234Y3180
X19234Y3180
X18234Y3180
X17234Y3180
X16234Y3180
X15234Y3180
X14234Y3180
X13234Y3180
X12234Y3180
X11234Y3180
X10234Y3180
X9234Y3180
X8234Y3180
X7234Y3180
X7234Y2180
X8234Y2180
X9234Y2180
X10234Y2180
X11234Y2180
X12234Y2180
X13234Y2180
X14234Y2180
X15234Y2180
X16234Y2180
X17234Y2180
X18234Y2180
X19234Y2180
X20234Y2180
X21234Y2180
X22234Y2180
X23234Y2180
X3734Y7680
X2734Y7680
X2734Y8680
X2734Y9680
X2734Y10680
X2734Y11680
X3734Y11680
X2734Y12680
T06
X4234Y15290
X3053Y17180
T07
X3112Y2058
X25947Y2058
X25947Y21349
T08
X5455Y17180
M30
