G75*
%MOIN*%
%OFA0B0*%
%FSLAX24Y24*%
%IPPOS*%
%LPD*%
%AMOC8*
5,1,8,0,0,1.08239X$1,22.5*
%
%ADD10C,0.0560*%
%ADD11R,0.0700X0.0700*%
%ADD12C,0.0700*%
%ADD13C,0.2441*%
%ADD14C,0.1750*%
%ADD15C,0.1500*%
%ADD16OC8,0.0600*%
%ADD17C,0.0520*%
%ADD18OC8,0.0520*%
%ADD19C,0.0520*%
%ADD20C,0.0600*%
%ADD21C,0.0160*%
%ADD22C,0.0400*%
%ADD23C,0.0100*%
D10*
X002454Y004680D02*
X003014Y004680D01*
X003014Y005680D02*
X002454Y005680D01*
X002454Y020680D02*
X003014Y020680D01*
X003014Y021680D02*
X002454Y021680D01*
D11*
X005030Y020849D03*
D12*
X006030Y020849D03*
X007030Y020849D03*
X008030Y020849D03*
X009030Y020849D03*
X010030Y020849D03*
X011030Y020849D03*
X012030Y020849D03*
X013030Y020849D03*
X014030Y020849D03*
X015030Y020849D03*
X016030Y020849D03*
X017030Y020849D03*
X018030Y020849D03*
X019030Y020849D03*
X020030Y020849D03*
X021030Y020849D03*
X022030Y020849D03*
X023030Y020849D03*
X024030Y020849D03*
X024030Y021849D03*
X023030Y021849D03*
X022030Y021849D03*
X021030Y021849D03*
X020030Y021849D03*
X019030Y021849D03*
X018030Y021849D03*
X017030Y021849D03*
X016030Y021849D03*
X015030Y021849D03*
X014030Y021849D03*
X013030Y021849D03*
X012030Y021849D03*
X011030Y021849D03*
X010030Y021849D03*
X009030Y021849D03*
X008030Y021849D03*
X007030Y021849D03*
X006030Y021849D03*
X005030Y021849D03*
D13*
X003112Y002058D03*
X025947Y002058D03*
X025947Y021349D03*
D14*
X005455Y017180D03*
D15*
X004234Y015290D03*
X003053Y017180D03*
D16*
X003734Y011680D03*
X003734Y007680D03*
X007234Y003180D03*
X008234Y003180D03*
X009234Y003180D03*
X009234Y002180D03*
X008234Y002180D03*
X007234Y002180D03*
X010234Y002180D03*
X011234Y002180D03*
X011234Y003180D03*
X010234Y003180D03*
X012234Y003180D03*
X013234Y003180D03*
X013234Y002180D03*
X012234Y002180D03*
X014234Y002180D03*
X015234Y002180D03*
X015234Y003180D03*
X014234Y003180D03*
X016234Y003180D03*
X017234Y003180D03*
X017234Y002180D03*
X016234Y002180D03*
X018234Y002180D03*
X019234Y002180D03*
X020234Y002180D03*
X020234Y003180D03*
X019234Y003180D03*
X018234Y003180D03*
X021234Y003180D03*
X022234Y003180D03*
X022234Y002180D03*
X021234Y002180D03*
X023234Y002180D03*
X023234Y003180D03*
X015234Y019680D03*
X014234Y019680D03*
D17*
X010734Y018180D03*
X007734Y018180D03*
X007734Y015180D03*
X010734Y015180D03*
D18*
X006234Y013180D03*
X006234Y012180D03*
X021734Y014680D03*
X022734Y014680D03*
X023734Y014680D03*
X023734Y017680D03*
X022734Y017680D03*
X021734Y017680D03*
D19*
X020234Y017420D02*
X020234Y017940D01*
X019234Y017940D02*
X019234Y017420D01*
X018234Y017420D02*
X018234Y017940D01*
X017234Y017940D02*
X017234Y017420D01*
X016234Y017420D02*
X016234Y017940D01*
X015234Y017940D02*
X015234Y017420D01*
X014234Y017420D02*
X014234Y017940D01*
X013234Y017940D02*
X013234Y017420D01*
X013234Y014940D02*
X013234Y014420D01*
X013234Y013440D02*
X013234Y012920D01*
X012234Y012920D02*
X012234Y013440D01*
X011234Y013440D02*
X011234Y012920D01*
X010234Y012920D02*
X010234Y013440D01*
X009234Y013440D02*
X009234Y012920D01*
X008234Y012920D02*
X008234Y013440D01*
X007234Y013440D02*
X007234Y012920D01*
X007234Y007440D02*
X007234Y006920D01*
X008234Y006920D02*
X008234Y007440D01*
X009234Y007440D02*
X009234Y006920D01*
X010234Y006920D02*
X010234Y007440D01*
X011234Y007440D02*
X011234Y006920D01*
X012234Y006920D02*
X012234Y007440D01*
X013234Y007440D02*
X013234Y006920D01*
X014234Y006920D02*
X014234Y007440D01*
X015234Y007440D02*
X015234Y006920D01*
X016234Y006920D02*
X016234Y007440D01*
X017234Y007440D02*
X017234Y006920D01*
X018234Y006920D02*
X018234Y007440D01*
X019234Y007440D02*
X019234Y006920D01*
X020234Y006920D02*
X020234Y007440D01*
X021234Y007440D02*
X021234Y006920D01*
X022234Y006920D02*
X022234Y007440D01*
X023234Y007440D02*
X023234Y006920D01*
X024234Y006920D02*
X024234Y007440D01*
X025234Y007440D02*
X025234Y006920D01*
X026234Y006920D02*
X026234Y007440D01*
X022234Y005940D02*
X022234Y005420D01*
X021234Y005420D02*
X021234Y005940D01*
X020234Y005940D02*
X020234Y005420D01*
X019234Y005420D02*
X019234Y005940D01*
X018234Y005940D02*
X018234Y005420D01*
X017234Y005420D02*
X017234Y005940D01*
X017234Y012920D02*
X017234Y013440D01*
X016234Y013440D02*
X016234Y012920D01*
X015234Y012920D02*
X015234Y013440D01*
X014234Y013440D02*
X014234Y012920D01*
X014234Y014420D02*
X014234Y014940D01*
X015234Y014940D02*
X015234Y014420D01*
X016234Y014420D02*
X016234Y014940D01*
X017234Y014940D02*
X017234Y014420D01*
X018234Y014420D02*
X018234Y014940D01*
X019234Y014940D02*
X019234Y014420D01*
X020234Y014420D02*
X020234Y014940D01*
X020234Y013440D02*
X020234Y012920D01*
X019234Y012920D02*
X019234Y013440D01*
X018234Y013440D02*
X018234Y012920D01*
X021234Y012920D02*
X021234Y013440D01*
X022234Y013440D02*
X022234Y012920D01*
X023234Y012920D02*
X023234Y013440D01*
X024234Y013440D02*
X024234Y012920D01*
X025234Y012920D02*
X025234Y013440D01*
X026234Y013440D02*
X026234Y012920D01*
D20*
X025934Y014680D02*
X026534Y014680D01*
X026534Y015680D02*
X025934Y015680D01*
X025934Y016680D02*
X026534Y016680D01*
X026534Y017680D02*
X025934Y017680D01*
X025934Y018680D02*
X026534Y018680D01*
X003034Y012680D02*
X002434Y012680D01*
X002434Y011680D02*
X003034Y011680D01*
X003034Y010680D02*
X002434Y010680D01*
X002434Y009680D02*
X003034Y009680D01*
X003034Y008680D02*
X002434Y008680D01*
X002434Y007680D02*
X003034Y007680D01*
D21*
X003342Y007337D02*
X003427Y007337D01*
X003384Y007379D02*
X003544Y007220D01*
X003615Y007220D01*
X002566Y006171D01*
X002545Y006120D01*
X002367Y006120D01*
X002205Y006053D01*
X002081Y005929D01*
X002014Y005768D01*
X002014Y005592D01*
X002081Y005431D01*
X002205Y005307D01*
X002367Y005240D01*
X003102Y005240D01*
X003264Y005307D01*
X003388Y005431D01*
X003454Y005592D01*
X003454Y005768D01*
X003388Y005929D01*
X003264Y006053D01*
X003167Y006093D01*
X004345Y007272D01*
X004413Y007339D01*
X004449Y007427D01*
X004449Y009278D01*
X004413Y009366D01*
X003392Y010387D01*
X003424Y010419D01*
X003494Y010588D01*
X003494Y010771D01*
X003424Y010941D01*
X003295Y011070D01*
X003126Y011140D01*
X002343Y011140D01*
X002214Y011087D01*
X002214Y011273D01*
X002343Y011220D01*
X003126Y011220D01*
X003295Y011290D01*
X003384Y011379D01*
X003544Y011220D01*
X003925Y011220D01*
X004194Y011489D01*
X004194Y011871D01*
X003925Y012140D01*
X003544Y012140D01*
X003384Y011981D01*
X003295Y012070D01*
X003126Y012140D01*
X002343Y012140D01*
X002214Y012087D01*
X002214Y012253D01*
X002250Y012235D01*
X002322Y012212D01*
X002397Y012200D01*
X002714Y012200D01*
X002714Y012660D01*
X002754Y012660D01*
X002754Y012200D01*
X003072Y012200D01*
X003147Y012212D01*
X003219Y012235D01*
X003286Y012269D01*
X003347Y012314D01*
X003401Y012367D01*
X003445Y012428D01*
X003479Y012496D01*
X003503Y012568D01*
X003514Y012642D01*
X003514Y012660D01*
X002754Y012660D01*
X002754Y012700D01*
X002714Y012700D01*
X002714Y013160D01*
X002397Y013160D01*
X002322Y013148D01*
X002250Y013125D01*
X002214Y013107D01*
X002214Y016779D01*
X002238Y016729D01*
X002294Y016641D01*
X002359Y016559D01*
X002433Y016485D01*
X002514Y016420D01*
X002603Y016365D01*
X002697Y016319D01*
X002796Y016285D01*
X002897Y016262D01*
X002973Y016253D01*
X002973Y017100D01*
X003133Y017100D01*
X003133Y016253D01*
X003209Y016262D01*
X003311Y016285D01*
X003410Y016319D01*
X003504Y016365D01*
X003592Y016420D01*
X003674Y016485D01*
X003748Y016559D01*
X003813Y016641D01*
X003869Y016729D01*
X003914Y016824D01*
X003948Y016922D01*
X003972Y017024D01*
X003980Y017100D01*
X003133Y017100D01*
X003133Y017260D01*
X002973Y017260D01*
X002973Y018092D01*
X004746Y019865D01*
X009021Y019865D01*
X009606Y020450D01*
X009657Y020501D01*
X009741Y020417D01*
X009928Y020339D01*
X010131Y020339D01*
X010319Y020417D01*
X010462Y020560D01*
X010530Y020724D01*
X010597Y020560D01*
X010741Y020417D01*
X010927Y020340D01*
X010528Y019941D01*
X010500Y020009D01*
X010398Y020110D01*
X010266Y020165D01*
X010123Y020165D01*
X009991Y020110D01*
X009889Y020009D01*
X009834Y019877D01*
X009834Y019742D01*
X009444Y019352D01*
X009444Y016607D01*
X008139Y015301D01*
X008091Y015418D01*
X007972Y015536D01*
X007818Y015600D01*
X007651Y015600D01*
X007497Y015536D01*
X007378Y015418D01*
X007314Y015264D01*
X007314Y015096D01*
X007378Y014942D01*
X007497Y014824D01*
X007613Y014776D01*
X007599Y014762D01*
X007599Y013656D01*
X007591Y013678D01*
X007472Y013796D01*
X007318Y013860D01*
X007151Y013860D01*
X007014Y013803D01*
X007014Y017511D01*
X007080Y017576D01*
X007134Y017708D01*
X007134Y017852D01*
X007114Y017900D01*
X007421Y017900D01*
X007497Y017824D01*
X007651Y017760D01*
X007818Y017760D01*
X007972Y017824D01*
X008091Y017942D01*
X008154Y018096D01*
X008154Y018264D01*
X008091Y018418D01*
X007972Y018536D01*
X007818Y018600D01*
X007651Y018600D01*
X007497Y018536D01*
X007378Y018418D01*
X007363Y018380D01*
X006367Y018380D01*
X006279Y018343D01*
X005997Y018062D01*
X005854Y018144D01*
X005591Y018215D01*
X005319Y018215D01*
X005055Y018144D01*
X004819Y018008D01*
X004627Y017816D01*
X004490Y017579D01*
X004420Y017316D01*
X004420Y017044D01*
X004490Y016781D01*
X004627Y016544D01*
X004819Y016352D01*
X005055Y016216D01*
X005229Y016169D01*
X005229Y013907D01*
X005266Y013819D01*
X005814Y013271D01*
X005814Y013006D01*
X006061Y012760D01*
X006408Y012760D01*
X006534Y012886D01*
X006534Y012502D01*
X006417Y012620D01*
X006234Y012620D01*
X006052Y012620D01*
X005794Y012362D01*
X005794Y012180D01*
X005794Y011998D01*
X006052Y011740D01*
X006234Y011740D01*
X006234Y012180D01*
X005794Y012180D01*
X006234Y012180D01*
X006234Y012180D01*
X006234Y012180D01*
X006234Y012620D01*
X006234Y012180D01*
X006234Y012180D01*
X006234Y012200D01*
X003219Y012200D01*
X002769Y012650D01*
X002734Y012680D01*
X002769Y012740D01*
X003039Y013010D01*
X003039Y017150D01*
X003053Y017180D01*
X003133Y017164D02*
X004420Y017164D01*
X004422Y017323D02*
X003973Y017323D01*
X003972Y017336D02*
X003948Y017438D01*
X003914Y017536D01*
X003869Y017631D01*
X003813Y017719D01*
X003748Y017801D01*
X003674Y017875D01*
X003592Y017940D01*
X003504Y017995D01*
X003410Y018041D01*
X003311Y018075D01*
X003209Y018098D01*
X003133Y018107D01*
X003133Y017260D01*
X003980Y017260D01*
X003972Y017336D01*
X003933Y017481D02*
X004464Y017481D01*
X004525Y017640D02*
X003863Y017640D01*
X003750Y017798D02*
X004617Y017798D01*
X004768Y017957D02*
X003566Y017957D01*
X003133Y017957D02*
X002973Y017957D01*
X002973Y017798D02*
X003133Y017798D01*
X003133Y017640D02*
X002973Y017640D01*
X002973Y017481D02*
X003133Y017481D01*
X003133Y017323D02*
X002973Y017323D01*
X002973Y017006D02*
X003133Y017006D01*
X003133Y016847D02*
X002973Y016847D01*
X002973Y016689D02*
X003133Y016689D01*
X003133Y016530D02*
X002973Y016530D01*
X002973Y016372D02*
X003133Y016372D01*
X003515Y016372D02*
X004800Y016372D01*
X004641Y016530D02*
X003719Y016530D01*
X003843Y016689D02*
X004544Y016689D01*
X004473Y016847D02*
X003922Y016847D01*
X003967Y017006D02*
X004430Y017006D01*
X005455Y017180D02*
X005469Y017105D01*
X005469Y013955D01*
X006234Y013190D01*
X006234Y013180D01*
X005936Y012885D02*
X003469Y012885D01*
X003479Y012864D02*
X003445Y012932D01*
X003401Y012993D01*
X003347Y013046D01*
X003286Y013091D01*
X003219Y013125D01*
X003147Y013148D01*
X003072Y013160D01*
X002754Y013160D01*
X002754Y012700D01*
X003514Y012700D01*
X003514Y012718D01*
X003503Y012792D01*
X003479Y012864D01*
X003513Y012726D02*
X006534Y012726D01*
X006534Y012568D02*
X006469Y012568D01*
X006234Y012568D02*
X006234Y012568D01*
X006234Y012409D02*
X006234Y012409D01*
X006234Y012251D02*
X006234Y012251D01*
X006234Y012180D02*
X006234Y011740D01*
X006417Y011740D01*
X006534Y011858D01*
X006534Y006257D01*
X006571Y006169D01*
X006639Y006102D01*
X009100Y003640D01*
X009044Y003640D01*
X008774Y003371D01*
X008774Y002989D01*
X009044Y002720D01*
X009425Y002720D01*
X009543Y002838D01*
X009564Y002817D01*
X009878Y002502D01*
X009754Y002379D01*
X009754Y002200D01*
X010214Y002200D01*
X010214Y002160D01*
X009754Y002160D01*
X009754Y001981D01*
X010036Y001700D01*
X010214Y001700D01*
X010214Y002160D01*
X010254Y002160D01*
X010254Y001700D01*
X010433Y001700D01*
X010557Y001823D01*
X010599Y001782D01*
X011094Y001287D01*
X011182Y001250D01*
X020277Y001250D01*
X020365Y001287D01*
X020433Y001354D01*
X020907Y001828D01*
X021036Y001700D01*
X021214Y001700D01*
X021214Y002160D01*
X021254Y002160D01*
X021254Y001700D01*
X021433Y001700D01*
X021714Y001981D01*
X021714Y002160D01*
X021254Y002160D01*
X021254Y002200D01*
X021714Y002200D01*
X021714Y002379D01*
X021586Y002507D01*
X021603Y002524D01*
X021918Y002839D01*
X021920Y002844D01*
X022044Y002720D01*
X022425Y002720D01*
X022694Y002989D01*
X022694Y003371D01*
X022425Y003640D01*
X022359Y003640D01*
X023133Y004414D01*
X023169Y004502D01*
X023169Y006263D01*
X023133Y006351D01*
X023065Y006418D01*
X023034Y006449D01*
X023034Y006548D01*
X023151Y006500D01*
X023318Y006500D01*
X023472Y006564D01*
X023591Y006682D01*
X023654Y006836D01*
X023654Y007524D01*
X023591Y007678D01*
X023472Y007796D01*
X023365Y007841D01*
X025878Y010354D01*
X025914Y010442D01*
X025914Y012618D01*
X025948Y012584D01*
X026004Y012544D01*
X026066Y012512D01*
X026131Y012491D01*
X026200Y012480D01*
X026234Y012480D01*
X026234Y013180D01*
X026234Y013180D01*
X026214Y013145D01*
X026214Y010040D01*
X023694Y007520D01*
X023694Y002660D01*
X023244Y002210D01*
X023234Y002180D01*
X023214Y002200D02*
X023214Y002160D01*
X022754Y002160D01*
X022754Y001981D01*
X023036Y001700D01*
X023214Y001700D01*
X023214Y002160D01*
X023254Y002160D01*
X023254Y001700D01*
X023433Y001700D01*
X023714Y001981D01*
X023714Y002160D01*
X023254Y002160D01*
X023254Y002200D01*
X023214Y002200D01*
X022754Y002200D01*
X022754Y002379D01*
X023036Y002660D01*
X023214Y002660D01*
X023214Y002200D01*
X023254Y002200D02*
X023254Y002660D01*
X023433Y002660D01*
X023714Y002379D01*
X023714Y002200D01*
X023254Y002200D01*
X023254Y002265D02*
X023214Y002265D01*
X023214Y002107D02*
X023254Y002107D01*
X023254Y001948D02*
X023214Y001948D01*
X023214Y001790D02*
X023254Y001790D01*
X023523Y001790D02*
X024590Y001790D01*
X024567Y001876D02*
X024661Y001525D01*
X024842Y001210D01*
X025093Y000960D01*
X003967Y000960D01*
X004217Y001210D01*
X004399Y001525D01*
X004493Y001876D01*
X004493Y002240D01*
X004399Y002591D01*
X004217Y002906D01*
X003960Y003163D01*
X003645Y003344D01*
X003294Y003438D01*
X002931Y003438D01*
X002580Y003344D01*
X002265Y003163D01*
X002014Y002912D01*
X002014Y007492D01*
X002045Y007419D01*
X002174Y007290D01*
X002343Y007220D01*
X003126Y007220D01*
X003295Y007290D01*
X003384Y007379D01*
X003574Y007179D02*
X002014Y007179D01*
X002014Y007337D02*
X002127Y007337D01*
X002014Y007020D02*
X003415Y007020D01*
X003257Y006862D02*
X002014Y006862D01*
X002014Y006703D02*
X003098Y006703D01*
X002940Y006545D02*
X002014Y006545D01*
X002014Y006386D02*
X002781Y006386D01*
X002623Y006228D02*
X002014Y006228D01*
X002014Y006069D02*
X002244Y006069D01*
X002074Y005911D02*
X002014Y005911D01*
X002014Y005752D02*
X002014Y005752D01*
X002014Y005594D02*
X002014Y005594D01*
X002014Y005435D02*
X002080Y005435D01*
X002014Y005277D02*
X002279Y005277D01*
X002362Y005118D02*
X002014Y005118D01*
X002014Y004960D02*
X002112Y004960D01*
X002081Y004929D02*
X002014Y004768D01*
X002014Y004592D01*
X002081Y004431D01*
X002205Y004307D01*
X002367Y004240D01*
X003102Y004240D01*
X003264Y004307D01*
X003388Y004431D01*
X003454Y004592D01*
X003454Y004768D01*
X003388Y004929D01*
X003264Y005053D01*
X003102Y005120D01*
X002367Y005120D01*
X002205Y005053D01*
X002081Y004929D01*
X002028Y004801D02*
X002014Y004801D01*
X002014Y004643D02*
X002014Y004643D01*
X002014Y004484D02*
X002059Y004484D01*
X002014Y004326D02*
X002187Y004326D01*
X002014Y004167D02*
X008573Y004167D01*
X008415Y004326D02*
X003282Y004326D01*
X003410Y004484D02*
X008256Y004484D01*
X008098Y004643D02*
X003454Y004643D01*
X003441Y004801D02*
X007939Y004801D01*
X007781Y004960D02*
X003357Y004960D01*
X003107Y005118D02*
X007622Y005118D01*
X007464Y005277D02*
X003190Y005277D01*
X003389Y005435D02*
X007305Y005435D01*
X007147Y005594D02*
X003454Y005594D01*
X003454Y005752D02*
X006988Y005752D01*
X006830Y005911D02*
X003395Y005911D01*
X003225Y006069D02*
X006671Y006069D01*
X006547Y006228D02*
X003301Y006228D01*
X003460Y006386D02*
X006534Y006386D01*
X006534Y006545D02*
X003618Y006545D01*
X003777Y006703D02*
X006534Y006703D01*
X006534Y006862D02*
X003935Y006862D01*
X004094Y007020D02*
X006534Y007020D01*
X006534Y007179D02*
X004252Y007179D01*
X004411Y007337D02*
X006534Y007337D01*
X006534Y007496D02*
X004449Y007496D01*
X004449Y007654D02*
X006534Y007654D01*
X006534Y007813D02*
X004449Y007813D01*
X004449Y007971D02*
X006534Y007971D01*
X006534Y008130D02*
X004449Y008130D01*
X004449Y008288D02*
X006534Y008288D01*
X006534Y008447D02*
X004449Y008447D01*
X004449Y008605D02*
X006534Y008605D01*
X006534Y008764D02*
X004449Y008764D01*
X004449Y008922D02*
X006534Y008922D01*
X006534Y009081D02*
X004449Y009081D01*
X004449Y009239D02*
X006534Y009239D01*
X006534Y009398D02*
X004381Y009398D01*
X004223Y009556D02*
X006534Y009556D01*
X006534Y009715D02*
X004064Y009715D01*
X003906Y009873D02*
X006534Y009873D01*
X006534Y010032D02*
X003747Y010032D01*
X003589Y010190D02*
X006534Y010190D01*
X006534Y010349D02*
X003430Y010349D01*
X003461Y010507D02*
X006534Y010507D01*
X006534Y010666D02*
X003494Y010666D01*
X003473Y010824D02*
X006534Y010824D01*
X006534Y010983D02*
X003383Y010983D01*
X003305Y011300D02*
X003464Y011300D01*
X004005Y011300D02*
X006534Y011300D01*
X006534Y011458D02*
X004163Y011458D01*
X004194Y011617D02*
X006534Y011617D01*
X006534Y011775D02*
X006452Y011775D01*
X006234Y011775D02*
X006234Y011775D01*
X006234Y011934D02*
X006234Y011934D01*
X006234Y012092D02*
X006234Y012092D01*
X006017Y011775D02*
X004194Y011775D01*
X004132Y011934D02*
X005859Y011934D01*
X005794Y012092D02*
X003973Y012092D01*
X003496Y012092D02*
X003242Y012092D01*
X003249Y012251D02*
X005794Y012251D01*
X005841Y012409D02*
X003431Y012409D01*
X003503Y012568D02*
X006000Y012568D01*
X005814Y013043D02*
X003350Y013043D01*
X002754Y013043D02*
X002714Y013043D01*
X002714Y012885D02*
X002754Y012885D01*
X002754Y012726D02*
X002714Y012726D01*
X002714Y012568D02*
X002754Y012568D01*
X002754Y012409D02*
X002714Y012409D01*
X002714Y012251D02*
X002754Y012251D01*
X002220Y012251D02*
X002214Y012251D01*
X002214Y012092D02*
X002227Y012092D01*
X002214Y011141D02*
X006534Y011141D01*
X006533Y012885D02*
X006534Y012885D01*
X005814Y013202D02*
X002214Y013202D01*
X002214Y013360D02*
X005725Y013360D01*
X005567Y013519D02*
X002214Y013519D01*
X002214Y013677D02*
X005408Y013677D01*
X005259Y013836D02*
X002214Y013836D01*
X002214Y013994D02*
X005229Y013994D01*
X005229Y014153D02*
X002214Y014153D01*
X002214Y014311D02*
X005229Y014311D01*
X005229Y014470D02*
X004631Y014470D01*
X004750Y014519D02*
X005006Y014775D01*
X005144Y015109D01*
X005144Y015471D01*
X005006Y015806D01*
X004750Y016062D01*
X004415Y016200D01*
X004053Y016200D01*
X003719Y016062D01*
X003463Y015806D01*
X003324Y015471D01*
X003324Y015109D01*
X003463Y014775D01*
X003719Y014519D01*
X004053Y014380D01*
X004415Y014380D01*
X004750Y014519D01*
X004859Y014628D02*
X005229Y014628D01*
X005229Y014787D02*
X005011Y014787D01*
X005076Y014945D02*
X005229Y014945D01*
X005229Y015104D02*
X005142Y015104D01*
X005144Y015262D02*
X005229Y015262D01*
X005229Y015421D02*
X005144Y015421D01*
X005100Y015579D02*
X005229Y015579D01*
X005229Y015738D02*
X005034Y015738D01*
X004916Y015896D02*
X005229Y015896D01*
X005229Y016055D02*
X004757Y016055D01*
X005065Y016213D02*
X002214Y016213D01*
X002214Y016055D02*
X003712Y016055D01*
X003553Y015896D02*
X002214Y015896D01*
X002214Y015738D02*
X003435Y015738D01*
X003369Y015579D02*
X002214Y015579D01*
X002214Y015421D02*
X003324Y015421D01*
X003324Y015262D02*
X002214Y015262D01*
X002214Y015104D02*
X003327Y015104D01*
X003393Y014945D02*
X002214Y014945D01*
X002214Y014787D02*
X003458Y014787D01*
X003610Y014628D02*
X002214Y014628D01*
X002214Y014470D02*
X003838Y014470D01*
X002592Y016372D02*
X002214Y016372D01*
X002214Y016530D02*
X002388Y016530D01*
X002264Y016689D02*
X002214Y016689D01*
X002014Y017727D02*
X002014Y020546D01*
X002028Y020503D01*
X002061Y020439D01*
X002104Y020380D01*
X002155Y020329D01*
X002213Y020287D01*
X002278Y020254D01*
X002347Y020231D01*
X002418Y020220D01*
X002724Y020220D01*
X002724Y020670D01*
X002744Y020670D01*
X002744Y020220D01*
X003051Y020220D01*
X003122Y020231D01*
X003191Y020254D01*
X003256Y020287D01*
X003314Y020329D01*
X003365Y020380D01*
X003408Y020439D01*
X003441Y020503D01*
X003463Y020572D01*
X003474Y020644D01*
X003474Y020670D01*
X002744Y020670D01*
X002744Y020690D01*
X002724Y020690D01*
X002724Y021140D01*
X002418Y021140D01*
X002347Y021129D01*
X002278Y021106D01*
X002213Y021073D01*
X002155Y021031D01*
X002104Y020980D01*
X002061Y020921D01*
X002028Y020857D01*
X002014Y020814D01*
X002014Y021546D01*
X002017Y021586D01*
X002081Y021431D01*
X002205Y021307D01*
X002367Y021240D01*
X003102Y021240D01*
X003264Y021307D01*
X003388Y021431D01*
X003454Y021592D01*
X003454Y021768D01*
X003388Y021929D01*
X003264Y022053D01*
X003102Y022120D01*
X002367Y022120D01*
X002205Y022053D01*
X002138Y021985D01*
X002201Y022095D01*
X002367Y022261D01*
X002571Y022379D01*
X002798Y022440D01*
X002916Y022447D01*
X007635Y022447D01*
X007453Y022265D01*
X007408Y022221D01*
X007375Y022254D01*
X007308Y022303D01*
X007233Y022340D01*
X007154Y022366D01*
X007071Y022379D01*
X007048Y022379D01*
X007048Y021868D01*
X007011Y021868D01*
X007011Y022379D01*
X006988Y022379D01*
X006906Y022366D01*
X006826Y022340D01*
X006752Y022303D01*
X006684Y022254D01*
X006626Y022195D01*
X006576Y022127D01*
X006539Y022053D01*
X006521Y021997D01*
X006462Y022138D01*
X006319Y022282D01*
X006131Y022359D01*
X005928Y022359D01*
X005741Y022282D01*
X005597Y022138D01*
X005530Y021975D01*
X005462Y022138D01*
X005319Y022282D01*
X005131Y022359D01*
X004928Y022359D01*
X004741Y022282D01*
X004597Y022138D01*
X004520Y021951D01*
X004520Y021748D01*
X004597Y021560D01*
X004741Y021417D01*
X004880Y021359D01*
X004613Y021359D01*
X004520Y021266D01*
X004520Y020433D01*
X004613Y020339D01*
X005446Y020339D01*
X005540Y020433D01*
X005540Y020700D01*
X005597Y020560D01*
X005741Y020417D01*
X005928Y020339D01*
X006131Y020339D01*
X006319Y020417D01*
X006462Y020560D01*
X006530Y020724D01*
X006597Y020560D01*
X006741Y020417D01*
X006928Y020339D01*
X007131Y020339D01*
X007319Y020417D01*
X007462Y020560D01*
X007530Y020724D01*
X007597Y020560D01*
X007741Y020417D01*
X007928Y020339D01*
X008131Y020339D01*
X008319Y020417D01*
X008462Y020560D01*
X008521Y020701D01*
X008539Y020646D01*
X008576Y020572D01*
X008626Y020504D01*
X008684Y020445D01*
X008752Y020396D01*
X008826Y020358D01*
X008897Y020335D01*
X008848Y020285D01*
X004573Y020285D01*
X004449Y020162D01*
X002014Y017727D01*
X002014Y017798D02*
X002086Y017798D01*
X002014Y017957D02*
X002244Y017957D01*
X002403Y018115D02*
X002014Y018115D01*
X002014Y018274D02*
X002561Y018274D01*
X002720Y018432D02*
X002014Y018432D01*
X002014Y018591D02*
X002878Y018591D01*
X003037Y018749D02*
X002014Y018749D01*
X002014Y018908D02*
X003195Y018908D01*
X003354Y019066D02*
X002014Y019066D01*
X002014Y019225D02*
X003512Y019225D01*
X003671Y019383D02*
X002014Y019383D01*
X002014Y019542D02*
X003829Y019542D01*
X003988Y019700D02*
X002014Y019700D01*
X002014Y019859D02*
X004146Y019859D01*
X004305Y020017D02*
X002014Y020017D01*
X002014Y020176D02*
X004463Y020176D01*
X004479Y020300D02*
X004479Y022055D01*
X004794Y022370D01*
X006234Y022370D01*
X006729Y021875D01*
X006999Y021875D01*
X007030Y021849D01*
X007011Y021919D02*
X007048Y021919D01*
X007048Y022078D02*
X007011Y022078D01*
X007011Y022236D02*
X007048Y022236D01*
X007393Y022236D02*
X007424Y022236D01*
X007582Y022395D02*
X002630Y022395D01*
X002342Y022236D02*
X004695Y022236D01*
X004572Y022078D02*
X003205Y022078D01*
X003392Y021919D02*
X004520Y021919D01*
X004520Y021761D02*
X003454Y021761D01*
X003454Y021602D02*
X004580Y021602D01*
X004714Y021444D02*
X003393Y021444D01*
X003211Y021285D02*
X004539Y021285D01*
X004520Y021127D02*
X003129Y021127D01*
X003122Y021129D02*
X003051Y021140D01*
X002744Y021140D01*
X002744Y020690D01*
X003474Y020690D01*
X003474Y020716D01*
X003463Y020788D01*
X003441Y020857D01*
X003408Y020921D01*
X003365Y020980D01*
X003314Y021031D01*
X003256Y021073D01*
X003191Y021106D01*
X003122Y021129D01*
X003374Y020968D02*
X004520Y020968D01*
X004520Y020810D02*
X003456Y020810D01*
X003474Y020651D02*
X004520Y020651D01*
X004520Y020493D02*
X003435Y020493D01*
X003319Y020334D02*
X008897Y020334D01*
X008637Y020493D02*
X008394Y020493D01*
X008500Y020651D02*
X008537Y020651D01*
X008540Y020831D02*
X009011Y020831D01*
X009011Y020868D01*
X008540Y020868D01*
X008540Y020831D01*
X008754Y020840D02*
X008214Y020300D01*
X004479Y020300D01*
X003129Y020300D01*
X002769Y020660D01*
X002734Y020680D01*
X002724Y020651D02*
X002744Y020651D01*
X002744Y020493D02*
X002724Y020493D01*
X002724Y020334D02*
X002744Y020334D01*
X002724Y020810D02*
X002744Y020810D01*
X002744Y020968D02*
X002724Y020968D01*
X002724Y021127D02*
X002744Y021127D01*
X002340Y021127D02*
X002014Y021127D01*
X002014Y021285D02*
X002258Y021285D01*
X002076Y021444D02*
X002014Y021444D01*
X002014Y020968D02*
X002095Y020968D01*
X002034Y020493D02*
X002014Y020493D01*
X002014Y020334D02*
X002150Y020334D01*
X003789Y018908D02*
X009444Y018908D01*
X009444Y019066D02*
X003948Y019066D01*
X004106Y019225D02*
X009444Y019225D01*
X009476Y019383D02*
X004265Y019383D01*
X004423Y019542D02*
X009634Y019542D01*
X009793Y019700D02*
X004582Y019700D01*
X004740Y019859D02*
X009834Y019859D01*
X009897Y020017D02*
X009174Y020017D01*
X009332Y020176D02*
X010763Y020176D01*
X010922Y020334D02*
X009491Y020334D01*
X009649Y020493D02*
X009665Y020493D01*
X009030Y020849D02*
X009024Y020840D01*
X008754Y020840D01*
X007665Y020493D02*
X007394Y020493D01*
X007500Y020651D02*
X007560Y020651D01*
X006665Y020493D02*
X006394Y020493D01*
X006500Y020651D02*
X006560Y020651D01*
X005665Y020493D02*
X005540Y020493D01*
X005540Y020651D02*
X005560Y020651D01*
X005572Y022078D02*
X005487Y022078D01*
X005364Y022236D02*
X005695Y022236D01*
X006364Y022236D02*
X006667Y022236D01*
X006551Y022078D02*
X006487Y022078D01*
X010394Y020493D02*
X010665Y020493D01*
X010560Y020651D02*
X010500Y020651D01*
X010492Y020017D02*
X010605Y020017D01*
X010882Y019700D02*
X012162Y019700D01*
X012013Y019850D02*
X013822Y018041D01*
X013814Y018024D01*
X013814Y017336D01*
X013878Y017182D01*
X013997Y017064D01*
X014151Y017000D01*
X014318Y017000D01*
X014472Y017064D01*
X014591Y017182D01*
X014654Y017336D01*
X014654Y018024D01*
X014591Y018178D01*
X014472Y018296D01*
X014318Y018360D01*
X014151Y018360D01*
X014112Y018344D01*
X012309Y020147D01*
X012309Y020273D01*
X013573Y019010D01*
X014428Y019010D01*
X015099Y018338D01*
X014997Y018296D01*
X014878Y018178D01*
X014814Y018024D01*
X014814Y017336D01*
X014878Y017182D01*
X014997Y017064D01*
X015151Y017000D01*
X015318Y017000D01*
X015472Y017064D01*
X015591Y017182D01*
X015654Y017336D01*
X015654Y017783D01*
X015814Y017623D01*
X015814Y017336D01*
X015878Y017182D01*
X015997Y017064D01*
X016151Y017000D01*
X016318Y017000D01*
X016472Y017064D01*
X016591Y017182D01*
X016654Y017336D01*
X016654Y018024D01*
X016591Y018178D01*
X016472Y018296D01*
X016318Y018360D01*
X016151Y018360D01*
X015997Y018296D01*
X015878Y018178D01*
X015871Y018160D01*
X014724Y019307D01*
X014618Y019413D01*
X014694Y019489D01*
X014694Y019871D01*
X014425Y020140D01*
X014044Y020140D01*
X013774Y019871D01*
X013774Y019489D01*
X013834Y019430D01*
X013746Y019430D01*
X012773Y020404D01*
X012928Y020339D01*
X013131Y020339D01*
X013319Y020417D01*
X013462Y020560D01*
X013530Y020724D01*
X013597Y020560D01*
X013741Y020417D01*
X013928Y020339D01*
X014131Y020339D01*
X014319Y020417D01*
X014390Y020488D01*
X014428Y020450D01*
X014743Y020135D01*
X015039Y020135D01*
X014774Y019871D01*
X014774Y019489D01*
X015044Y019220D01*
X015425Y019220D01*
X015694Y019489D01*
X015694Y019768D01*
X017117Y018346D01*
X016997Y018296D01*
X016878Y018178D01*
X016814Y018024D01*
X016814Y017336D01*
X016878Y017182D01*
X016997Y017064D01*
X017151Y017000D01*
X017318Y017000D01*
X017472Y017064D01*
X017591Y017182D01*
X017654Y017336D01*
X017654Y017808D01*
X017814Y017648D01*
X017814Y017336D01*
X017878Y017182D01*
X017997Y017064D01*
X018151Y017000D01*
X018318Y017000D01*
X018472Y017064D01*
X018591Y017182D01*
X018654Y017336D01*
X018654Y018024D01*
X018591Y018178D01*
X018472Y018296D01*
X018318Y018360D01*
X018151Y018360D01*
X017997Y018296D01*
X017878Y018178D01*
X015624Y020432D01*
X015501Y020555D01*
X015457Y020555D01*
X015462Y020560D01*
X015530Y020724D01*
X015597Y020560D01*
X015741Y020417D01*
X015928Y020339D01*
X016131Y020339D01*
X016319Y020417D01*
X016462Y020560D01*
X016521Y020701D01*
X016539Y020646D01*
X016576Y020572D01*
X016626Y020504D01*
X016684Y020445D01*
X016752Y020396D01*
X016826Y020358D01*
X016906Y020332D01*
X016988Y020319D01*
X017011Y020319D01*
X017011Y020831D01*
X017048Y020831D01*
X017048Y020319D01*
X017071Y020319D01*
X017154Y020332D01*
X017233Y020358D01*
X017308Y020396D01*
X017319Y020405D01*
X017319Y019493D01*
X017443Y019370D01*
X018613Y018200D01*
X018901Y018200D01*
X018878Y018178D01*
X018814Y018024D01*
X018814Y017336D01*
X018878Y017182D01*
X018997Y017064D01*
X019151Y017000D01*
X019318Y017000D01*
X019472Y017064D01*
X019591Y017182D01*
X019654Y017336D01*
X019654Y018024D01*
X019591Y018178D01*
X019568Y018200D01*
X019901Y018200D01*
X019878Y018178D01*
X019814Y018024D01*
X019814Y017336D01*
X019878Y017182D01*
X019997Y017064D01*
X020151Y017000D01*
X020318Y017000D01*
X020472Y017064D01*
X020591Y017182D01*
X020654Y017336D01*
X020654Y018024D01*
X020591Y018178D01*
X020568Y018200D01*
X022483Y018200D01*
X022583Y018100D01*
X022561Y018100D01*
X022314Y017854D01*
X022314Y017506D01*
X022561Y017260D01*
X022908Y017260D01*
X023154Y017506D01*
X023154Y017528D01*
X023203Y017480D01*
X023341Y017480D01*
X023561Y017260D01*
X023908Y017260D01*
X024154Y017506D01*
X024154Y017854D01*
X023908Y018100D01*
X023561Y018100D01*
X023368Y017908D01*
X022779Y018497D01*
X022656Y018620D01*
X021591Y018620D01*
X021654Y018683D01*
X021891Y018920D01*
X024700Y018920D01*
X024796Y018825D01*
X024928Y018770D01*
X025071Y018770D01*
X025203Y018825D01*
X025305Y018926D01*
X025359Y019058D01*
X025359Y019202D01*
X025305Y019334D01*
X025203Y019435D01*
X025071Y019490D01*
X024928Y019490D01*
X024796Y019435D01*
X024700Y019340D01*
X021816Y019340D01*
X022849Y020372D01*
X022928Y020339D01*
X023131Y020339D01*
X023319Y020417D01*
X023462Y020560D01*
X023521Y020701D01*
X023539Y020646D01*
X023576Y020572D01*
X023626Y020504D01*
X023684Y020445D01*
X023752Y020396D01*
X023826Y020358D01*
X023906Y020332D01*
X023988Y020319D01*
X024011Y020319D01*
X024011Y020831D01*
X024048Y020831D01*
X024048Y020319D01*
X024071Y020319D01*
X024154Y020332D01*
X024233Y020358D01*
X024308Y020396D01*
X024375Y020445D01*
X024434Y020504D01*
X024480Y020567D01*
X025273Y019775D01*
X025768Y019775D01*
X026403Y019140D01*
X025843Y019140D01*
X025674Y019070D01*
X025545Y018941D01*
X025474Y018771D01*
X025474Y018588D01*
X025545Y018419D01*
X025674Y018290D01*
X025843Y018220D01*
X026626Y018220D01*
X026769Y018279D01*
X026769Y018099D01*
X026719Y018125D01*
X026647Y018148D01*
X026572Y018160D01*
X026254Y018160D01*
X026254Y017700D01*
X026214Y017700D01*
X026214Y017660D01*
X025454Y017660D01*
X025454Y017642D01*
X025466Y017568D01*
X025490Y017496D01*
X025513Y017450D01*
X024508Y017450D01*
X024384Y017327D01*
X024013Y016955D01*
X013431Y016955D01*
X013366Y017020D01*
X013472Y017064D01*
X013591Y017182D01*
X013654Y017336D01*
X013654Y018024D01*
X013591Y018178D01*
X013472Y018296D01*
X013318Y018360D01*
X013151Y018360D01*
X012997Y018296D01*
X012878Y018178D01*
X012814Y018024D01*
X012814Y017572D01*
X011586Y018800D01*
X010468Y018800D01*
X010344Y018677D01*
X010119Y018452D01*
X010119Y017918D01*
X010243Y017795D01*
X011604Y016433D01*
X011604Y015379D01*
X011509Y015284D01*
X011454Y015152D01*
X011454Y015008D01*
X011509Y014876D01*
X011611Y014775D01*
X011743Y014720D01*
X011886Y014720D01*
X012018Y014775D01*
X012120Y014876D01*
X012174Y015008D01*
X012174Y015152D01*
X012120Y015284D01*
X012024Y015379D01*
X012024Y016553D01*
X012403Y016175D01*
X013603Y016175D01*
X013539Y016112D01*
X011604Y014177D01*
X011604Y013644D01*
X011591Y013678D01*
X011472Y013796D01*
X011318Y013860D01*
X011151Y013860D01*
X010997Y013796D01*
X010878Y013678D01*
X010814Y013524D01*
X010814Y012836D01*
X010878Y012682D01*
X010997Y012564D01*
X011027Y012551D01*
X010969Y012494D01*
X010914Y012362D01*
X010914Y012218D01*
X010969Y012086D01*
X011071Y011985D01*
X011203Y011930D01*
X011346Y011930D01*
X011478Y011985D01*
X011580Y012086D01*
X011634Y012218D01*
X011634Y012362D01*
X011611Y012419D01*
X011877Y012686D01*
X011878Y012682D01*
X011997Y012564D01*
X012151Y012500D01*
X012318Y012500D01*
X012472Y012564D01*
X012591Y012682D01*
X012654Y012836D01*
X012654Y013524D01*
X012591Y013678D01*
X012472Y013796D01*
X012318Y013860D01*
X012151Y013860D01*
X012024Y013808D01*
X012024Y014003D01*
X012814Y014793D01*
X012814Y014336D01*
X012878Y014182D01*
X012997Y014064D01*
X013151Y014000D01*
X013318Y014000D01*
X013472Y014064D01*
X013591Y014182D01*
X013654Y014336D01*
X013654Y015024D01*
X013591Y015178D01*
X013472Y015296D01*
X013363Y015341D01*
X013836Y015815D01*
X020335Y015815D01*
X020431Y015720D01*
X020563Y015665D01*
X020706Y015665D01*
X020838Y015720D01*
X020940Y015821D01*
X020994Y015953D01*
X020994Y016097D01*
X020962Y016175D01*
X022528Y016175D01*
X023603Y015100D01*
X023561Y015100D01*
X023314Y014854D01*
X023314Y014592D01*
X022629Y013907D01*
X022629Y013584D01*
X022591Y013678D01*
X022472Y013796D01*
X022318Y013860D01*
X022151Y013860D01*
X021997Y013796D01*
X021924Y013724D01*
X021924Y014276D01*
X022154Y014506D01*
X022154Y014854D01*
X021908Y015100D01*
X021561Y015100D01*
X021314Y014854D01*
X021314Y014506D01*
X021504Y014316D01*
X021504Y013764D01*
X021472Y013796D01*
X021318Y013860D01*
X021151Y013860D01*
X020997Y013796D01*
X020878Y013678D01*
X020814Y013524D01*
X020814Y012836D01*
X020878Y012682D01*
X020997Y012564D01*
X021009Y012559D01*
X021009Y012377D01*
X016543Y007910D01*
X016441Y007809D01*
X016352Y007846D01*
X019404Y010898D01*
X019404Y012536D01*
X019472Y012564D01*
X019591Y012682D01*
X019654Y012836D01*
X019654Y013524D01*
X019591Y013678D01*
X019472Y013796D01*
X019318Y013860D01*
X019151Y013860D01*
X018997Y013796D01*
X018878Y013678D01*
X018814Y013524D01*
X018814Y012836D01*
X018878Y012682D01*
X018984Y012576D01*
X018984Y011072D01*
X015590Y007678D01*
X015472Y007796D01*
X015318Y007860D01*
X015151Y007860D01*
X014997Y007796D01*
X014878Y007678D01*
X014814Y007524D01*
X014814Y006836D01*
X014878Y006682D01*
X014997Y006564D01*
X015151Y006500D01*
X015318Y006500D01*
X015429Y006546D01*
X015429Y003692D01*
X015378Y003640D01*
X015044Y003640D01*
X014774Y003371D01*
X014774Y002989D01*
X014804Y002960D01*
X014665Y002960D01*
X014694Y002989D01*
X014694Y003371D01*
X014425Y003640D01*
X014056Y003640D01*
X014049Y003647D01*
X014049Y006542D01*
X014151Y006500D01*
X014318Y006500D01*
X014472Y006564D01*
X014591Y006682D01*
X014654Y006836D01*
X014654Y007524D01*
X014591Y007678D01*
X014472Y007796D01*
X014318Y007860D01*
X014151Y007860D01*
X013997Y007796D01*
X013883Y007683D01*
X013464Y008102D01*
X013464Y012561D01*
X013472Y012564D01*
X013591Y012682D01*
X013654Y012836D01*
X013654Y013524D01*
X013591Y013678D01*
X013472Y013796D01*
X013318Y013860D01*
X013151Y013860D01*
X012997Y013796D01*
X012878Y013678D01*
X012814Y013524D01*
X012814Y012836D01*
X012878Y012682D01*
X012997Y012564D01*
X013044Y012544D01*
X013044Y009004D01*
X013008Y009040D01*
X012876Y009095D01*
X012733Y009095D01*
X012601Y009040D01*
X012499Y008939D01*
X012444Y008807D01*
X012444Y008672D01*
X011520Y007748D01*
X011472Y007796D01*
X011318Y007860D01*
X011151Y007860D01*
X010997Y007796D01*
X010878Y007678D01*
X010814Y007524D01*
X010814Y006836D01*
X010878Y006682D01*
X010997Y006564D01*
X011151Y006500D01*
X011318Y006500D01*
X011472Y006564D01*
X011591Y006682D01*
X011654Y006836D01*
X011654Y007288D01*
X011814Y007448D01*
X011814Y006836D01*
X011878Y006682D01*
X011997Y006564D01*
X012151Y006500D01*
X012318Y006500D01*
X012472Y006564D01*
X012591Y006682D01*
X012654Y006836D01*
X012654Y007524D01*
X012591Y007678D01*
X012472Y007796D01*
X012318Y007860D01*
X012226Y007860D01*
X012741Y008375D01*
X012876Y008375D01*
X013008Y008430D01*
X013044Y008466D01*
X013044Y007928D01*
X013124Y007849D01*
X012997Y007796D01*
X012878Y007678D01*
X012814Y007524D01*
X012814Y006836D01*
X012878Y006682D01*
X012997Y006564D01*
X013151Y006500D01*
X013318Y006500D01*
X013472Y006564D01*
X013591Y006682D01*
X013629Y006776D01*
X013629Y003707D01*
X013476Y003860D01*
X013026Y003860D01*
X010366Y006520D01*
X010472Y006564D01*
X010591Y006682D01*
X010654Y006836D01*
X010654Y007524D01*
X010591Y007678D01*
X010472Y007796D01*
X010404Y007824D01*
X010404Y012467D01*
X010356Y012516D01*
X010472Y012564D01*
X010591Y012682D01*
X010654Y012836D01*
X010654Y013524D01*
X010591Y013678D01*
X010472Y013796D01*
X010318Y013860D01*
X010151Y013860D01*
X010044Y013816D01*
X010044Y018863D01*
X011631Y020450D01*
X011670Y020488D01*
X011694Y020464D01*
X011644Y020414D01*
X011589Y020282D01*
X011589Y020138D01*
X011644Y020006D01*
X011746Y019905D01*
X011878Y019850D01*
X012013Y019850D01*
X011857Y019859D02*
X011040Y019859D01*
X011199Y020017D02*
X011640Y020017D01*
X011589Y020176D02*
X011357Y020176D01*
X011516Y020334D02*
X011611Y020334D01*
X012309Y020176D02*
X012407Y020176D01*
X012439Y020017D02*
X012565Y020017D01*
X012598Y019859D02*
X012724Y019859D01*
X012756Y019700D02*
X012882Y019700D01*
X012915Y019542D02*
X013041Y019542D01*
X013073Y019383D02*
X013199Y019383D01*
X013232Y019225D02*
X013358Y019225D01*
X013390Y019066D02*
X013516Y019066D01*
X013549Y018908D02*
X014530Y018908D01*
X014688Y018749D02*
X013707Y018749D01*
X013866Y018591D02*
X014847Y018591D01*
X015005Y018432D02*
X014024Y018432D01*
X013747Y018115D02*
X013617Y018115D01*
X013589Y018274D02*
X013495Y018274D01*
X013430Y018432D02*
X011954Y018432D01*
X011796Y018591D02*
X013272Y018591D01*
X013113Y018749D02*
X011637Y018749D01*
X012113Y018274D02*
X012974Y018274D01*
X012852Y018115D02*
X012271Y018115D01*
X012430Y017957D02*
X012814Y017957D01*
X012814Y017798D02*
X012588Y017798D01*
X012747Y017640D02*
X012814Y017640D01*
X013381Y017006D02*
X014138Y017006D01*
X014331Y017006D02*
X015138Y017006D01*
X015331Y017006D02*
X016138Y017006D01*
X016331Y017006D02*
X017138Y017006D01*
X017331Y017006D02*
X018138Y017006D01*
X018331Y017006D02*
X019138Y017006D01*
X019059Y016970D02*
X023784Y016970D01*
X025359Y018545D01*
X025359Y019535D01*
X024054Y020840D01*
X024030Y020849D01*
X024048Y020831D02*
X024339Y020831D01*
X024339Y020868D01*
X024048Y020868D01*
X024048Y020831D01*
X024048Y020810D02*
X024011Y020810D01*
X024011Y020651D02*
X024048Y020651D01*
X024048Y020493D02*
X024011Y020493D01*
X024011Y020334D02*
X024048Y020334D01*
X024159Y020334D02*
X024713Y020334D01*
X024555Y020493D02*
X024423Y020493D01*
X023900Y020334D02*
X022811Y020334D01*
X022652Y020176D02*
X024872Y020176D01*
X025030Y020017D02*
X022494Y020017D01*
X022335Y019859D02*
X025189Y019859D01*
X025256Y019383D02*
X026159Y019383D01*
X026001Y019542D02*
X022018Y019542D01*
X022177Y019700D02*
X025842Y019700D01*
X026318Y019225D02*
X025350Y019225D01*
X025359Y019066D02*
X025670Y019066D01*
X025531Y018908D02*
X025286Y018908D01*
X025474Y018749D02*
X021721Y018749D01*
X021879Y018908D02*
X024713Y018908D01*
X024743Y019383D02*
X021860Y019383D01*
X022686Y018591D02*
X025474Y018591D01*
X025359Y018545D02*
X026214Y017690D01*
X026234Y017680D01*
X026214Y017700D02*
X025454Y017700D01*
X025454Y017718D01*
X025466Y017792D01*
X025490Y017864D01*
X025524Y017932D01*
X025568Y017993D01*
X025622Y018046D01*
X025683Y018091D01*
X025750Y018125D01*
X025822Y018148D01*
X025897Y018160D01*
X026214Y018160D01*
X026214Y017700D01*
X026214Y017798D02*
X026254Y017798D01*
X026254Y017957D02*
X026214Y017957D01*
X026214Y018115D02*
X026254Y018115D01*
X026738Y018115D02*
X026769Y018115D01*
X026755Y018274D02*
X026769Y018274D01*
X027045Y017279D02*
X027045Y002912D01*
X026795Y003163D01*
X026480Y003344D01*
X026129Y003438D01*
X025765Y003438D01*
X025414Y003344D01*
X025099Y003163D01*
X024842Y002906D01*
X024661Y002591D01*
X024567Y002240D01*
X024567Y001876D01*
X024567Y001948D02*
X023681Y001948D01*
X023714Y002107D02*
X024567Y002107D01*
X024573Y002265D02*
X023714Y002265D01*
X023670Y002424D02*
X024616Y002424D01*
X024658Y002582D02*
X023511Y002582D01*
X023425Y002720D02*
X023694Y002989D01*
X023694Y003371D01*
X023425Y003640D01*
X023044Y003640D01*
X022774Y003371D01*
X022774Y002989D01*
X023044Y002720D01*
X023425Y002720D01*
X023446Y002741D02*
X024747Y002741D01*
X024839Y002899D02*
X023604Y002899D01*
X023694Y003058D02*
X024994Y003058D01*
X025192Y003216D02*
X023694Y003216D01*
X023691Y003375D02*
X025527Y003375D01*
X026367Y003375D02*
X027045Y003375D01*
X027045Y003533D02*
X023532Y003533D01*
X022937Y003533D02*
X022532Y003533D01*
X022410Y003692D02*
X027045Y003692D01*
X027045Y003850D02*
X022569Y003850D01*
X022727Y004009D02*
X027045Y004009D01*
X027045Y004167D02*
X022886Y004167D01*
X023044Y004326D02*
X027045Y004326D01*
X027045Y004484D02*
X023162Y004484D01*
X023169Y004643D02*
X027045Y004643D01*
X027045Y004801D02*
X023169Y004801D01*
X023169Y004960D02*
X027045Y004960D01*
X027045Y005118D02*
X023169Y005118D01*
X023169Y005277D02*
X027045Y005277D01*
X027045Y005435D02*
X023169Y005435D01*
X023169Y005594D02*
X027045Y005594D01*
X027045Y005752D02*
X023169Y005752D01*
X023169Y005911D02*
X027045Y005911D01*
X027045Y006069D02*
X023169Y006069D01*
X023169Y006228D02*
X027045Y006228D01*
X027045Y006386D02*
X023098Y006386D01*
X023043Y006545D02*
X023034Y006545D01*
X022794Y006350D02*
X022929Y006215D01*
X022929Y004550D01*
X021714Y003335D01*
X021714Y002975D01*
X021399Y002660D01*
X021039Y002660D01*
X020724Y002345D01*
X020724Y001985D01*
X020229Y001490D01*
X011229Y001490D01*
X010734Y001985D01*
X010734Y002345D01*
X010374Y002705D01*
X010014Y002705D01*
X009699Y003020D01*
X009699Y003380D01*
X006774Y006305D01*
X006774Y017780D01*
X007106Y017640D02*
X009444Y017640D01*
X009444Y017798D02*
X007910Y017798D01*
X008097Y017957D02*
X009444Y017957D01*
X009444Y018115D02*
X008154Y018115D01*
X008150Y018274D02*
X009444Y018274D01*
X009444Y018432D02*
X008076Y018432D01*
X007841Y018591D02*
X009444Y018591D01*
X009444Y018749D02*
X003630Y018749D01*
X003472Y018591D02*
X007628Y018591D01*
X007393Y018432D02*
X003313Y018432D01*
X003155Y018274D02*
X006209Y018274D01*
X006050Y018115D02*
X005905Y018115D01*
X006414Y018140D02*
X005469Y017195D01*
X005455Y017180D01*
X005004Y018115D02*
X002996Y018115D01*
X006414Y018140D02*
X007719Y018140D01*
X007734Y018180D01*
X007559Y017798D02*
X007134Y017798D01*
X007014Y017481D02*
X009444Y017481D01*
X009444Y017323D02*
X007014Y017323D01*
X007014Y017164D02*
X009444Y017164D01*
X009444Y017006D02*
X007014Y017006D01*
X007014Y016847D02*
X009444Y016847D01*
X009444Y016689D02*
X007014Y016689D01*
X007014Y016530D02*
X009368Y016530D01*
X009209Y016372D02*
X007014Y016372D01*
X007014Y016213D02*
X009051Y016213D01*
X008892Y016055D02*
X007014Y016055D01*
X007014Y015896D02*
X008734Y015896D01*
X008575Y015738D02*
X007014Y015738D01*
X007014Y015579D02*
X007600Y015579D01*
X007869Y015579D02*
X008417Y015579D01*
X008258Y015421D02*
X008088Y015421D01*
X007381Y015421D02*
X007014Y015421D01*
X007014Y015262D02*
X007314Y015262D01*
X007314Y015104D02*
X007014Y015104D01*
X007014Y014945D02*
X007377Y014945D01*
X007587Y014787D02*
X007014Y014787D01*
X007014Y014628D02*
X007599Y014628D01*
X007599Y014470D02*
X007014Y014470D01*
X007014Y014311D02*
X007599Y014311D01*
X007599Y014153D02*
X007014Y014153D01*
X007014Y013994D02*
X007599Y013994D01*
X007599Y013836D02*
X007377Y013836D01*
X007591Y013677D02*
X007599Y013677D01*
X007092Y013836D02*
X007014Y013836D01*
X010044Y013836D02*
X010092Y013836D01*
X010044Y013994D02*
X011604Y013994D01*
X011604Y013836D02*
X011377Y013836D01*
X011591Y013677D02*
X011604Y013677D01*
X012024Y013836D02*
X012092Y013836D01*
X012024Y013994D02*
X021504Y013994D01*
X021504Y013836D02*
X021377Y013836D01*
X021092Y013836D02*
X020377Y013836D01*
X020318Y013860D02*
X020472Y013796D01*
X020591Y013678D01*
X020654Y013524D01*
X020654Y012836D01*
X020591Y012682D01*
X020472Y012564D01*
X020318Y012500D01*
X020151Y012500D01*
X019997Y012564D01*
X019878Y012682D01*
X019814Y012836D01*
X019814Y013524D01*
X019878Y013678D01*
X019997Y013796D01*
X020151Y013860D01*
X020318Y013860D01*
X020318Y014000D02*
X020472Y014064D01*
X020591Y014182D01*
X020654Y014336D01*
X020654Y015024D01*
X020591Y015178D01*
X020472Y015296D01*
X020318Y015360D01*
X020151Y015360D01*
X019997Y015296D01*
X019878Y015178D01*
X019814Y015024D01*
X019814Y014336D01*
X019878Y014182D01*
X019997Y014064D01*
X020151Y014000D01*
X020318Y014000D01*
X020092Y013836D02*
X019377Y013836D01*
X019318Y014000D02*
X019472Y014064D01*
X019591Y014182D01*
X019654Y014336D01*
X019654Y015024D01*
X019591Y015178D01*
X019472Y015296D01*
X019318Y015360D01*
X019151Y015360D01*
X018997Y015296D01*
X018878Y015178D01*
X018814Y015024D01*
X018814Y014336D01*
X018878Y014182D01*
X018997Y014064D01*
X019151Y014000D01*
X019318Y014000D01*
X019092Y013836D02*
X018377Y013836D01*
X018318Y013860D02*
X018472Y013796D01*
X018591Y013678D01*
X018654Y013524D01*
X018654Y012836D01*
X018591Y012682D01*
X018472Y012564D01*
X018318Y012500D01*
X018151Y012500D01*
X017997Y012564D01*
X017878Y012682D01*
X017814Y012836D01*
X017814Y013524D01*
X017878Y013678D01*
X017997Y013796D01*
X018151Y013860D01*
X018318Y013860D01*
X018318Y014000D02*
X018472Y014064D01*
X018591Y014182D01*
X018654Y014336D01*
X018654Y015024D01*
X018591Y015178D01*
X018472Y015296D01*
X018318Y015360D01*
X018151Y015360D01*
X017997Y015296D01*
X017878Y015178D01*
X017814Y015024D01*
X017814Y014336D01*
X017878Y014182D01*
X017997Y014064D01*
X018151Y014000D01*
X018318Y014000D01*
X018092Y013836D02*
X017377Y013836D01*
X017318Y013860D02*
X017472Y013796D01*
X017591Y013678D01*
X017654Y013524D01*
X017654Y012836D01*
X017591Y012682D01*
X017472Y012564D01*
X017318Y012500D01*
X017151Y012500D01*
X016997Y012564D01*
X016878Y012682D01*
X016814Y012836D01*
X016814Y013524D01*
X016878Y013678D01*
X016997Y013796D01*
X017151Y013860D01*
X017318Y013860D01*
X017318Y014000D02*
X017472Y014064D01*
X017591Y014182D01*
X017654Y014336D01*
X017654Y015024D01*
X017591Y015178D01*
X017472Y015296D01*
X017318Y015360D01*
X017151Y015360D01*
X016997Y015296D01*
X016878Y015178D01*
X016814Y015024D01*
X016814Y014336D01*
X016878Y014182D01*
X016997Y014064D01*
X017151Y014000D01*
X017318Y014000D01*
X017092Y013836D02*
X016427Y013836D01*
X016403Y013848D02*
X016465Y013816D01*
X016521Y013776D01*
X016570Y013727D01*
X016611Y013671D01*
X016642Y013609D01*
X016664Y013543D01*
X016674Y013475D01*
X016674Y013180D01*
X016235Y013180D01*
X016235Y013180D01*
X016674Y013180D01*
X016674Y012885D01*
X016814Y012885D01*
X016674Y012885D02*
X016664Y012817D01*
X016642Y012751D01*
X016611Y012689D01*
X016570Y012633D01*
X016521Y012584D01*
X016465Y012544D01*
X016403Y012512D01*
X016338Y012491D01*
X016269Y012480D01*
X016234Y012480D01*
X016234Y013180D01*
X015794Y013180D01*
X015794Y012885D01*
X015805Y012817D01*
X015827Y012751D01*
X015858Y012689D01*
X015899Y012633D01*
X015948Y012584D01*
X016004Y012544D01*
X016066Y012512D01*
X016131Y012491D01*
X016200Y012480D01*
X016234Y012480D01*
X016234Y013180D01*
X016234Y013180D01*
X015794Y013180D01*
X015794Y013475D01*
X015805Y013543D01*
X015827Y013609D01*
X015858Y013671D01*
X015899Y013727D01*
X015948Y013776D01*
X016004Y013816D01*
X016066Y013848D01*
X016131Y013869D01*
X016200Y013880D01*
X016234Y013880D01*
X016234Y013180D01*
X016234Y013180D01*
X016234Y013180D01*
X016224Y013190D01*
X016089Y013190D01*
X015414Y013865D01*
X013029Y013865D01*
X012669Y013505D01*
X012669Y012740D01*
X011859Y011930D01*
X011094Y011930D01*
X010734Y012290D01*
X010734Y015180D01*
X010294Y015180D01*
X010734Y015180D01*
X010734Y015180D01*
X010734Y015180D01*
X010734Y014740D01*
X010700Y014740D01*
X010631Y014751D01*
X010566Y014772D01*
X010504Y014804D01*
X010448Y014844D01*
X010399Y014893D01*
X010358Y014949D01*
X010327Y015011D01*
X010305Y015077D01*
X010294Y015145D01*
X010294Y015180D01*
X010294Y015215D01*
X010305Y015283D01*
X010327Y015349D01*
X010358Y015411D01*
X010399Y015467D01*
X010448Y015516D01*
X010504Y015556D01*
X010566Y015588D01*
X010631Y015609D01*
X010700Y015620D01*
X010734Y015620D01*
X010734Y015180D01*
X010734Y015180D01*
X010734Y014740D01*
X010769Y014740D01*
X010838Y014751D01*
X010903Y014772D01*
X010965Y014804D01*
X011021Y014844D01*
X011070Y014893D01*
X011111Y014949D01*
X011142Y015011D01*
X011164Y015077D01*
X011174Y015145D01*
X011174Y015180D01*
X011174Y015215D01*
X011164Y015283D01*
X011142Y015349D01*
X011111Y015411D01*
X011070Y015467D01*
X011021Y015516D01*
X010965Y015556D01*
X010903Y015588D01*
X010838Y015609D01*
X010769Y015620D01*
X010734Y015620D01*
X010734Y015180D01*
X010735Y015180D02*
X011174Y015180D01*
X010735Y015180D01*
X010735Y015180D01*
X010734Y015104D02*
X010734Y015104D01*
X010734Y015262D02*
X010734Y015262D01*
X010734Y015421D02*
X010734Y015421D01*
X010734Y015579D02*
X010734Y015579D01*
X010548Y015579D02*
X010044Y015579D01*
X010044Y015421D02*
X010365Y015421D01*
X010302Y015262D02*
X010044Y015262D01*
X010044Y015104D02*
X010301Y015104D01*
X010361Y014945D02*
X010044Y014945D01*
X010044Y014787D02*
X010538Y014787D01*
X010734Y014787D02*
X010734Y014787D01*
X010734Y014945D02*
X010734Y014945D01*
X010931Y014787D02*
X011599Y014787D01*
X011481Y014945D02*
X011108Y014945D01*
X011168Y015104D02*
X011454Y015104D01*
X011500Y015262D02*
X011167Y015262D01*
X011104Y015421D02*
X011604Y015421D01*
X011604Y015579D02*
X010921Y015579D01*
X011604Y015738D02*
X010044Y015738D01*
X010044Y015896D02*
X011604Y015896D01*
X011604Y016055D02*
X010044Y016055D01*
X010044Y016213D02*
X011604Y016213D01*
X011604Y016372D02*
X010044Y016372D01*
X010044Y016530D02*
X011507Y016530D01*
X011349Y016689D02*
X010044Y016689D01*
X010044Y016847D02*
X011190Y016847D01*
X011032Y017006D02*
X010044Y017006D01*
X010044Y017164D02*
X010873Y017164D01*
X010715Y017323D02*
X010044Y017323D01*
X010044Y017481D02*
X010556Y017481D01*
X010398Y017640D02*
X010044Y017640D01*
X010044Y017798D02*
X010239Y017798D01*
X010119Y017957D02*
X010044Y017957D01*
X010044Y018115D02*
X010119Y018115D01*
X010119Y018274D02*
X010044Y018274D01*
X010044Y018432D02*
X010119Y018432D01*
X010044Y018591D02*
X010258Y018591D01*
X010417Y018749D02*
X010044Y018749D01*
X010089Y018908D02*
X012955Y018908D01*
X012796Y019066D02*
X010248Y019066D01*
X010406Y019225D02*
X012638Y019225D01*
X012479Y019383D02*
X010565Y019383D01*
X010723Y019542D02*
X012321Y019542D01*
X013001Y020176D02*
X014702Y020176D01*
X014548Y020017D02*
X014921Y020017D01*
X014774Y019859D02*
X014694Y019859D01*
X014694Y019700D02*
X014774Y019700D01*
X014774Y019542D02*
X014694Y019542D01*
X014648Y019383D02*
X014881Y019383D01*
X014807Y019225D02*
X015039Y019225D01*
X014965Y019066D02*
X016396Y019066D01*
X016238Y019225D02*
X015430Y019225D01*
X015588Y019383D02*
X016079Y019383D01*
X015921Y019542D02*
X015694Y019542D01*
X015694Y019700D02*
X015762Y019700D01*
X016039Y020017D02*
X017319Y020017D01*
X017319Y019859D02*
X016198Y019859D01*
X016356Y019700D02*
X017319Y019700D01*
X017319Y019542D02*
X016515Y019542D01*
X016673Y019383D02*
X017429Y019383D01*
X017588Y019225D02*
X016832Y019225D01*
X016990Y019066D02*
X017746Y019066D01*
X017905Y018908D02*
X017149Y018908D01*
X017307Y018749D02*
X018063Y018749D01*
X018222Y018591D02*
X017466Y018591D01*
X017624Y018432D02*
X018380Y018432D01*
X018495Y018274D02*
X018539Y018274D01*
X018617Y018115D02*
X018852Y018115D01*
X018789Y018005D02*
X018789Y017240D01*
X019059Y016970D01*
X018896Y017164D02*
X018572Y017164D01*
X018649Y017323D02*
X018820Y017323D01*
X018814Y017481D02*
X018654Y017481D01*
X018654Y017640D02*
X018814Y017640D01*
X018814Y017798D02*
X018654Y017798D01*
X018654Y017957D02*
X018814Y017957D01*
X018789Y018005D02*
X017034Y019760D01*
X017034Y020840D01*
X017030Y020849D01*
X017048Y020810D02*
X017011Y020810D01*
X017011Y020651D02*
X017048Y020651D01*
X017048Y020493D02*
X017011Y020493D01*
X017011Y020334D02*
X017048Y020334D01*
X017159Y020334D02*
X017319Y020334D01*
X017319Y020176D02*
X015881Y020176D01*
X015722Y020334D02*
X016900Y020334D01*
X016637Y020493D02*
X016394Y020493D01*
X016500Y020651D02*
X016537Y020651D01*
X015665Y020493D02*
X015564Y020493D01*
X015560Y020651D02*
X015500Y020651D01*
X014543Y020334D02*
X012842Y020334D01*
X013159Y020017D02*
X013921Y020017D01*
X013774Y019859D02*
X013318Y019859D01*
X013476Y019700D02*
X013774Y019700D01*
X013774Y019542D02*
X013635Y019542D01*
X013665Y020493D02*
X013394Y020493D01*
X013500Y020651D02*
X013560Y020651D01*
X015124Y018908D02*
X016555Y018908D01*
X016713Y018749D02*
X015282Y018749D01*
X015441Y018591D02*
X016872Y018591D01*
X017030Y018432D02*
X015599Y018432D01*
X015758Y018274D02*
X015974Y018274D01*
X016495Y018274D02*
X016974Y018274D01*
X016852Y018115D02*
X016617Y018115D01*
X016654Y017957D02*
X016814Y017957D01*
X016814Y017798D02*
X016654Y017798D01*
X016654Y017640D02*
X016814Y017640D01*
X016814Y017481D02*
X016654Y017481D01*
X016649Y017323D02*
X016820Y017323D01*
X016896Y017164D02*
X016572Y017164D01*
X015896Y017164D02*
X015572Y017164D01*
X015649Y017323D02*
X015820Y017323D01*
X015814Y017481D02*
X015654Y017481D01*
X015654Y017640D02*
X015798Y017640D01*
X014814Y017640D02*
X014654Y017640D01*
X014654Y017798D02*
X014814Y017798D01*
X014814Y017957D02*
X014654Y017957D01*
X014617Y018115D02*
X014852Y018115D01*
X014974Y018274D02*
X014495Y018274D01*
X013814Y017957D02*
X013654Y017957D01*
X013654Y017798D02*
X013814Y017798D01*
X013814Y017640D02*
X013654Y017640D01*
X013654Y017481D02*
X013814Y017481D01*
X013820Y017323D02*
X013649Y017323D01*
X013572Y017164D02*
X013896Y017164D01*
X014572Y017164D02*
X014896Y017164D01*
X014820Y017323D02*
X014649Y017323D01*
X014654Y017481D02*
X014814Y017481D01*
X013482Y016055D02*
X012024Y016055D01*
X012024Y016213D02*
X012364Y016213D01*
X012206Y016372D02*
X012024Y016372D01*
X012024Y016530D02*
X012047Y016530D01*
X012024Y015896D02*
X013324Y015896D01*
X013165Y015738D02*
X012024Y015738D01*
X012024Y015579D02*
X013007Y015579D01*
X012848Y015421D02*
X012024Y015421D01*
X012129Y015262D02*
X012690Y015262D01*
X012531Y015104D02*
X012174Y015104D01*
X012148Y014945D02*
X012373Y014945D01*
X012214Y014787D02*
X012030Y014787D01*
X012056Y014628D02*
X010044Y014628D01*
X010044Y014470D02*
X011897Y014470D01*
X011739Y014311D02*
X010044Y014311D01*
X010044Y014153D02*
X011604Y014153D01*
X012174Y014153D02*
X012908Y014153D01*
X012825Y014311D02*
X012332Y014311D01*
X012491Y014470D02*
X012814Y014470D01*
X012814Y014628D02*
X012649Y014628D01*
X012808Y014787D02*
X012814Y014787D01*
X013506Y015262D02*
X013963Y015262D01*
X013997Y015296D02*
X013878Y015178D01*
X013814Y015024D01*
X013814Y014336D01*
X013878Y014182D01*
X013997Y014064D01*
X014151Y014000D01*
X014318Y014000D01*
X014472Y014064D01*
X014591Y014182D01*
X014654Y014336D01*
X014654Y015024D01*
X014591Y015178D01*
X014472Y015296D01*
X014318Y015360D01*
X014151Y015360D01*
X013997Y015296D01*
X013848Y015104D02*
X013621Y015104D01*
X013654Y014945D02*
X013814Y014945D01*
X013814Y014787D02*
X013654Y014787D01*
X013654Y014628D02*
X013814Y014628D01*
X013814Y014470D02*
X013654Y014470D01*
X013644Y014311D02*
X013825Y014311D01*
X013908Y014153D02*
X013561Y014153D01*
X013377Y013836D02*
X014092Y013836D01*
X014151Y013860D02*
X013997Y013796D01*
X013878Y013678D01*
X013814Y013524D01*
X013814Y012836D01*
X013878Y012682D01*
X013997Y012564D01*
X014151Y012500D01*
X014318Y012500D01*
X014472Y012564D01*
X014591Y012682D01*
X014654Y012836D01*
X014654Y013524D01*
X014591Y013678D01*
X014472Y013796D01*
X014318Y013860D01*
X014151Y013860D01*
X014377Y013836D02*
X015092Y013836D01*
X015151Y013860D02*
X014997Y013796D01*
X014878Y013678D01*
X014814Y013524D01*
X014814Y012836D01*
X014878Y012682D01*
X014997Y012564D01*
X015151Y012500D01*
X015318Y012500D01*
X015472Y012564D01*
X015591Y012682D01*
X015654Y012836D01*
X015654Y013524D01*
X015591Y013678D01*
X015472Y013796D01*
X015318Y013860D01*
X015151Y013860D01*
X015151Y014000D02*
X015318Y014000D01*
X015472Y014064D01*
X015591Y014182D01*
X015654Y014336D01*
X015654Y015024D01*
X015591Y015178D01*
X015472Y015296D01*
X015318Y015360D01*
X015151Y015360D01*
X014997Y015296D01*
X014878Y015178D01*
X014814Y015024D01*
X014814Y014336D01*
X014878Y014182D01*
X014997Y014064D01*
X015151Y014000D01*
X015377Y013836D02*
X016042Y013836D01*
X016234Y013836D02*
X016234Y013836D01*
X016234Y013880D02*
X016234Y013180D01*
X016234Y013202D02*
X016234Y013202D01*
X016234Y013360D02*
X016234Y013360D01*
X016234Y013519D02*
X016234Y013519D01*
X016234Y013677D02*
X016234Y013677D01*
X016234Y013880D02*
X016269Y013880D01*
X016338Y013869D01*
X016403Y013848D01*
X016318Y014000D02*
X016472Y014064D01*
X016591Y014182D01*
X016654Y014336D01*
X016654Y015024D01*
X016591Y015178D01*
X016472Y015296D01*
X016318Y015360D01*
X016151Y015360D01*
X015997Y015296D01*
X015878Y015178D01*
X015814Y015024D01*
X015814Y014336D01*
X015878Y014182D01*
X015997Y014064D01*
X016151Y014000D01*
X016318Y014000D01*
X016561Y014153D02*
X016908Y014153D01*
X016825Y014311D02*
X016644Y014311D01*
X016654Y014470D02*
X016814Y014470D01*
X016814Y014628D02*
X016654Y014628D01*
X016654Y014787D02*
X016814Y014787D01*
X016814Y014945D02*
X016654Y014945D01*
X016621Y015104D02*
X016848Y015104D01*
X016963Y015262D02*
X016506Y015262D01*
X015963Y015262D02*
X015506Y015262D01*
X015621Y015104D02*
X015848Y015104D01*
X015814Y014945D02*
X015654Y014945D01*
X015654Y014787D02*
X015814Y014787D01*
X015814Y014628D02*
X015654Y014628D01*
X015654Y014470D02*
X015814Y014470D01*
X015825Y014311D02*
X015644Y014311D01*
X015561Y014153D02*
X015908Y014153D01*
X015863Y013677D02*
X015591Y013677D01*
X015654Y013519D02*
X015801Y013519D01*
X015794Y013360D02*
X015654Y013360D01*
X015654Y013202D02*
X015794Y013202D01*
X015794Y013043D02*
X015654Y013043D01*
X015654Y012885D02*
X015795Y012885D01*
X015840Y012726D02*
X015609Y012726D01*
X015476Y012568D02*
X015971Y012568D01*
X016234Y012568D02*
X016234Y012568D01*
X016234Y012726D02*
X016234Y012726D01*
X016234Y012885D02*
X016234Y012885D01*
X016234Y013043D02*
X016234Y013043D01*
X016674Y013043D02*
X016814Y013043D01*
X016814Y013202D02*
X016674Y013202D01*
X016674Y013360D02*
X016814Y013360D01*
X016814Y013519D02*
X016668Y013519D01*
X016606Y013677D02*
X016878Y013677D01*
X017591Y013677D02*
X017878Y013677D01*
X017814Y013519D02*
X017654Y013519D01*
X017654Y013360D02*
X017814Y013360D01*
X017814Y013202D02*
X017654Y013202D01*
X017654Y013043D02*
X017814Y013043D01*
X017814Y012885D02*
X017654Y012885D01*
X017609Y012726D02*
X017860Y012726D01*
X017993Y012568D02*
X017476Y012568D01*
X016993Y012568D02*
X016498Y012568D01*
X016629Y012726D02*
X016860Y012726D01*
X018476Y012568D02*
X018984Y012568D01*
X018984Y012409D02*
X013464Y012409D01*
X013464Y012251D02*
X018984Y012251D01*
X018984Y012092D02*
X013464Y012092D01*
X013464Y011934D02*
X018984Y011934D01*
X018984Y011775D02*
X013464Y011775D01*
X013464Y011617D02*
X018984Y011617D01*
X018984Y011458D02*
X013464Y011458D01*
X013464Y011300D02*
X018984Y011300D01*
X018984Y011141D02*
X013464Y011141D01*
X013464Y010983D02*
X018895Y010983D01*
X018737Y010824D02*
X013464Y010824D01*
X013464Y010666D02*
X018578Y010666D01*
X018420Y010507D02*
X013464Y010507D01*
X013464Y010349D02*
X018261Y010349D01*
X018103Y010190D02*
X013464Y010190D01*
X013464Y010032D02*
X017944Y010032D01*
X017786Y009873D02*
X013464Y009873D01*
X013464Y009715D02*
X017627Y009715D01*
X017469Y009556D02*
X013464Y009556D01*
X013464Y009398D02*
X017310Y009398D01*
X017152Y009239D02*
X013464Y009239D01*
X013464Y009081D02*
X016993Y009081D01*
X016835Y008922D02*
X013464Y008922D01*
X013464Y008764D02*
X016676Y008764D01*
X016518Y008605D02*
X013464Y008605D01*
X013464Y008447D02*
X016359Y008447D01*
X016201Y008288D02*
X013464Y008288D01*
X013464Y008130D02*
X016042Y008130D01*
X015884Y007971D02*
X013595Y007971D01*
X013754Y007813D02*
X014036Y007813D01*
X014433Y007813D02*
X015036Y007813D01*
X014869Y007654D02*
X014600Y007654D01*
X014654Y007496D02*
X014814Y007496D01*
X014814Y007337D02*
X014654Y007337D01*
X014654Y007179D02*
X014814Y007179D01*
X014814Y007020D02*
X014654Y007020D01*
X014654Y006862D02*
X014814Y006862D01*
X014870Y006703D02*
X014599Y006703D01*
X014425Y006545D02*
X015043Y006545D01*
X015425Y006545D02*
X015429Y006545D01*
X015429Y006386D02*
X014049Y006386D01*
X014049Y006228D02*
X015429Y006228D01*
X015429Y006069D02*
X014049Y006069D01*
X014049Y005911D02*
X015429Y005911D01*
X015429Y005752D02*
X014049Y005752D01*
X014049Y005594D02*
X015429Y005594D01*
X015429Y005435D02*
X014049Y005435D01*
X014049Y005277D02*
X015429Y005277D01*
X015429Y005118D02*
X014049Y005118D01*
X014049Y004960D02*
X015429Y004960D01*
X015429Y004801D02*
X014049Y004801D01*
X014049Y004643D02*
X015429Y004643D01*
X015429Y004484D02*
X014049Y004484D01*
X014049Y004326D02*
X015429Y004326D01*
X015429Y004167D02*
X014049Y004167D01*
X014049Y004009D02*
X015429Y004009D01*
X015429Y003850D02*
X014049Y003850D01*
X014049Y003692D02*
X015429Y003692D01*
X014937Y003533D02*
X014532Y003533D01*
X014691Y003375D02*
X014778Y003375D01*
X014774Y003216D02*
X014694Y003216D01*
X014694Y003058D02*
X014774Y003058D01*
X014916Y002540D02*
X014553Y002540D01*
X014714Y002379D01*
X014714Y002200D01*
X014254Y002200D01*
X014254Y002160D01*
X014714Y002160D01*
X014714Y001981D01*
X014658Y001925D01*
X014811Y001925D01*
X014754Y001981D01*
X014754Y002160D01*
X015214Y002160D01*
X015214Y002200D01*
X014754Y002200D01*
X014754Y002379D01*
X014916Y002540D01*
X014799Y002424D02*
X014670Y002424D01*
X014714Y002265D02*
X014754Y002265D01*
X014754Y002107D02*
X014714Y002107D01*
X014681Y001948D02*
X014788Y001948D01*
X015254Y002160D02*
X015254Y002200D01*
X015714Y002200D01*
X015714Y002379D01*
X015553Y002540D01*
X015916Y002540D01*
X015754Y002379D01*
X015754Y002200D01*
X016214Y002200D01*
X016214Y002160D01*
X015754Y002160D01*
X015754Y001981D01*
X015811Y001925D01*
X015658Y001925D01*
X015714Y001981D01*
X015714Y002160D01*
X015254Y002160D01*
X015714Y002107D02*
X015754Y002107D01*
X015754Y002265D02*
X015714Y002265D01*
X015670Y002424D02*
X015799Y002424D01*
X015788Y001948D02*
X015681Y001948D01*
X016254Y002160D02*
X016254Y002200D01*
X016714Y002200D01*
X016714Y002379D01*
X016553Y002540D01*
X016916Y002540D01*
X016754Y002379D01*
X016754Y002200D01*
X017214Y002200D01*
X017214Y002160D01*
X016754Y002160D01*
X016754Y001981D01*
X016811Y001925D01*
X016658Y001925D01*
X016714Y001981D01*
X016714Y002160D01*
X016254Y002160D01*
X016714Y002107D02*
X016754Y002107D01*
X016754Y002265D02*
X016714Y002265D01*
X016670Y002424D02*
X016799Y002424D01*
X017254Y002200D02*
X017714Y002200D01*
X017714Y002379D01*
X017553Y002540D01*
X017916Y002540D01*
X017754Y002379D01*
X017754Y002200D01*
X018214Y002200D01*
X018214Y002160D01*
X017754Y002160D01*
X017754Y001981D01*
X017811Y001925D01*
X017658Y001925D01*
X017714Y001981D01*
X017714Y002160D01*
X017254Y002160D01*
X017254Y002200D01*
X016788Y001948D02*
X016681Y001948D01*
X017681Y001948D02*
X017788Y001948D01*
X017754Y002107D02*
X017714Y002107D01*
X017714Y002265D02*
X017754Y002265D01*
X017799Y002424D02*
X017670Y002424D01*
X019734Y002345D02*
X019734Y001850D01*
X019734Y002345D02*
X020049Y002660D01*
X020409Y002660D01*
X020724Y002975D01*
X020724Y003335D01*
X021039Y003650D01*
X021084Y003650D01*
X022659Y005225D01*
X022659Y006125D01*
X022389Y006395D01*
X022119Y006395D01*
X021714Y006800D01*
X021399Y006485D01*
X018159Y006485D01*
X017394Y005720D01*
X017259Y005720D01*
X017234Y005680D01*
X016445Y007813D02*
X016433Y007813D01*
X016477Y007971D02*
X016604Y007971D01*
X016636Y008130D02*
X016762Y008130D01*
X016794Y008288D02*
X016921Y008288D01*
X016953Y008447D02*
X017079Y008447D01*
X017111Y008605D02*
X017238Y008605D01*
X017270Y008764D02*
X017396Y008764D01*
X017428Y008922D02*
X017555Y008922D01*
X017587Y009081D02*
X017713Y009081D01*
X017745Y009239D02*
X017872Y009239D01*
X017904Y009398D02*
X018030Y009398D01*
X018062Y009556D02*
X018189Y009556D01*
X018221Y009715D02*
X018347Y009715D01*
X018379Y009873D02*
X018506Y009873D01*
X018538Y010032D02*
X018664Y010032D01*
X018696Y010190D02*
X018823Y010190D01*
X018855Y010349D02*
X018981Y010349D01*
X019013Y010507D02*
X019140Y010507D01*
X019172Y010666D02*
X019298Y010666D01*
X019330Y010824D02*
X019457Y010824D01*
X019404Y010983D02*
X019615Y010983D01*
X019774Y011141D02*
X019404Y011141D01*
X019404Y011300D02*
X019932Y011300D01*
X020091Y011458D02*
X019404Y011458D01*
X019404Y011617D02*
X020249Y011617D01*
X020408Y011775D02*
X019404Y011775D01*
X019404Y011934D02*
X020566Y011934D01*
X020725Y012092D02*
X019404Y012092D01*
X019404Y012251D02*
X020883Y012251D01*
X021009Y012409D02*
X019404Y012409D01*
X019476Y012568D02*
X019993Y012568D01*
X019860Y012726D02*
X019609Y012726D01*
X019654Y012885D02*
X019814Y012885D01*
X019814Y013043D02*
X019654Y013043D01*
X019654Y013202D02*
X019814Y013202D01*
X019814Y013360D02*
X019654Y013360D01*
X019654Y013519D02*
X019814Y013519D01*
X019878Y013677D02*
X019591Y013677D01*
X019561Y014153D02*
X019908Y014153D01*
X019825Y014311D02*
X019644Y014311D01*
X019654Y014470D02*
X019814Y014470D01*
X019814Y014628D02*
X019654Y014628D01*
X019654Y014787D02*
X019814Y014787D01*
X019814Y014945D02*
X019654Y014945D01*
X019621Y015104D02*
X019848Y015104D01*
X019963Y015262D02*
X019506Y015262D01*
X018963Y015262D02*
X018506Y015262D01*
X018621Y015104D02*
X018848Y015104D01*
X018814Y014945D02*
X018654Y014945D01*
X018654Y014787D02*
X018814Y014787D01*
X018814Y014628D02*
X018654Y014628D01*
X018654Y014470D02*
X018814Y014470D01*
X018825Y014311D02*
X018644Y014311D01*
X018561Y014153D02*
X018908Y014153D01*
X018878Y013677D02*
X018591Y013677D01*
X018654Y013519D02*
X018814Y013519D01*
X018814Y013360D02*
X018654Y013360D01*
X018654Y013202D02*
X018814Y013202D01*
X018814Y013043D02*
X018654Y013043D01*
X018654Y012885D02*
X018814Y012885D01*
X018860Y012726D02*
X018609Y012726D01*
X017908Y014153D02*
X017561Y014153D01*
X017644Y014311D02*
X017825Y014311D01*
X017814Y014470D02*
X017654Y014470D01*
X017654Y014628D02*
X017814Y014628D01*
X017814Y014787D02*
X017654Y014787D01*
X017654Y014945D02*
X017814Y014945D01*
X017848Y015104D02*
X017621Y015104D01*
X017506Y015262D02*
X017963Y015262D01*
X017896Y017164D02*
X017572Y017164D01*
X017649Y017323D02*
X017820Y017323D01*
X017814Y017481D02*
X017654Y017481D01*
X017654Y017640D02*
X017814Y017640D01*
X017664Y017798D02*
X017654Y017798D01*
X017783Y018274D02*
X017974Y018274D01*
X019617Y018115D02*
X019852Y018115D01*
X019814Y017957D02*
X019654Y017957D01*
X019654Y017798D02*
X019814Y017798D01*
X019814Y017640D02*
X019654Y017640D01*
X019654Y017481D02*
X019814Y017481D01*
X019820Y017323D02*
X019649Y017323D01*
X019572Y017164D02*
X019896Y017164D01*
X020138Y017006D02*
X019331Y017006D01*
X020331Y017006D02*
X024063Y017006D01*
X024222Y017164D02*
X020572Y017164D01*
X020649Y017323D02*
X021498Y017323D01*
X021561Y017260D02*
X021908Y017260D01*
X022154Y017506D01*
X022154Y017854D01*
X021908Y018100D01*
X021561Y018100D01*
X021314Y017854D01*
X021314Y017506D01*
X021561Y017260D01*
X021339Y017481D02*
X020654Y017481D01*
X020654Y017640D02*
X021314Y017640D01*
X021314Y017798D02*
X020654Y017798D01*
X020654Y017957D02*
X021417Y017957D01*
X022052Y017957D02*
X022417Y017957D01*
X022314Y017798D02*
X022154Y017798D01*
X022154Y017640D02*
X022314Y017640D01*
X022339Y017481D02*
X022129Y017481D01*
X021971Y017323D02*
X022498Y017323D01*
X022971Y017323D02*
X023498Y017323D01*
X023201Y017481D02*
X023129Y017481D01*
X023320Y017957D02*
X023417Y017957D01*
X023161Y018115D02*
X025731Y018115D01*
X025714Y018274D02*
X023003Y018274D01*
X022844Y018432D02*
X025539Y018432D01*
X025542Y017957D02*
X024052Y017957D01*
X024154Y017798D02*
X025468Y017798D01*
X025455Y017640D02*
X024154Y017640D01*
X024129Y017481D02*
X025497Y017481D01*
X024380Y017323D02*
X023971Y017323D01*
X024366Y016445D02*
X024276Y016355D01*
X022941Y016355D01*
X024444Y014852D01*
X024444Y013808D01*
X024472Y013796D01*
X024554Y013714D01*
X024741Y013901D01*
X024729Y013928D01*
X024729Y014072D01*
X024784Y014204D01*
X024886Y014305D01*
X025018Y014360D01*
X025161Y014360D01*
X025293Y014305D01*
X025395Y014204D01*
X025449Y014072D01*
X025449Y013928D01*
X025414Y013842D01*
X025465Y013816D01*
X025521Y013776D01*
X025563Y013733D01*
X025974Y014144D01*
X025974Y014220D01*
X025843Y014220D01*
X025674Y014290D01*
X025545Y014419D01*
X025474Y014588D01*
X025474Y014771D01*
X025545Y014941D01*
X025674Y015070D01*
X025843Y015140D01*
X026626Y015140D01*
X026795Y015070D01*
X026924Y014941D01*
X026994Y014771D01*
X026994Y014588D01*
X026924Y014419D01*
X026795Y014290D01*
X026626Y014220D01*
X026454Y014220D01*
X026454Y013997D01*
X026418Y013909D01*
X026368Y013859D01*
X026403Y013848D01*
X026465Y013816D01*
X026521Y013776D01*
X026570Y013727D01*
X026611Y013671D01*
X026642Y013609D01*
X026664Y013543D01*
X026674Y013475D01*
X026674Y013180D01*
X026235Y013180D01*
X026235Y013180D01*
X026674Y013180D01*
X026674Y012885D01*
X027045Y012885D01*
X027045Y013043D02*
X026674Y013043D01*
X026674Y012885D02*
X026664Y012817D01*
X026642Y012751D01*
X026611Y012689D01*
X026570Y012633D01*
X026521Y012584D01*
X026465Y012544D01*
X026403Y012512D01*
X026338Y012491D01*
X026269Y012480D01*
X026234Y012480D01*
X026234Y013180D01*
X026234Y013043D02*
X026234Y013043D01*
X026234Y012885D02*
X026234Y012885D01*
X026234Y012726D02*
X026234Y012726D01*
X026234Y012568D02*
X026234Y012568D01*
X025971Y012568D02*
X025914Y012568D01*
X025914Y012409D02*
X027045Y012409D01*
X027045Y012251D02*
X025914Y012251D01*
X025914Y012092D02*
X027045Y012092D01*
X027045Y011934D02*
X025914Y011934D01*
X025914Y011775D02*
X027045Y011775D01*
X027045Y011617D02*
X025914Y011617D01*
X025914Y011458D02*
X027045Y011458D01*
X027045Y011300D02*
X025914Y011300D01*
X025914Y011141D02*
X027045Y011141D01*
X027045Y010983D02*
X025914Y010983D01*
X025914Y010824D02*
X027045Y010824D01*
X027045Y010666D02*
X025914Y010666D01*
X025914Y010507D02*
X027045Y010507D01*
X027045Y010349D02*
X025872Y010349D01*
X025714Y010190D02*
X027045Y010190D01*
X027045Y010032D02*
X025555Y010032D01*
X025397Y009873D02*
X027045Y009873D01*
X027045Y009715D02*
X025238Y009715D01*
X025080Y009556D02*
X027045Y009556D01*
X027045Y009398D02*
X024921Y009398D01*
X024763Y009239D02*
X027045Y009239D01*
X027045Y009081D02*
X024604Y009081D01*
X024446Y008922D02*
X027045Y008922D01*
X027045Y008764D02*
X024287Y008764D01*
X024129Y008605D02*
X027045Y008605D01*
X027045Y008447D02*
X023970Y008447D01*
X023812Y008288D02*
X027045Y008288D01*
X027045Y008130D02*
X023653Y008130D01*
X023495Y007971D02*
X027045Y007971D01*
X027045Y007813D02*
X026433Y007813D01*
X026472Y007796D02*
X026318Y007860D01*
X026151Y007860D01*
X025997Y007796D01*
X025878Y007678D01*
X025814Y007524D01*
X025814Y006836D01*
X025878Y006682D01*
X025997Y006564D01*
X026151Y006500D01*
X026318Y006500D01*
X026472Y006564D01*
X026591Y006682D01*
X026654Y006836D01*
X026654Y007524D01*
X026591Y007678D01*
X026472Y007796D01*
X026600Y007654D02*
X027045Y007654D01*
X027045Y007496D02*
X026654Y007496D01*
X026654Y007337D02*
X027045Y007337D01*
X027045Y007179D02*
X026654Y007179D01*
X026654Y007020D02*
X027045Y007020D01*
X027045Y006862D02*
X026654Y006862D01*
X026599Y006703D02*
X027045Y006703D01*
X027045Y006545D02*
X026425Y006545D01*
X026043Y006545D02*
X025425Y006545D01*
X025472Y006564D02*
X025318Y006500D01*
X025151Y006500D01*
X024997Y006564D01*
X024878Y006682D01*
X024814Y006836D01*
X024814Y007524D01*
X024878Y007678D01*
X024997Y007796D01*
X025151Y007860D01*
X025318Y007860D01*
X025472Y007796D01*
X025591Y007678D01*
X025654Y007524D01*
X025654Y006836D01*
X025591Y006682D01*
X025472Y006564D01*
X025599Y006703D02*
X025870Y006703D01*
X025814Y006862D02*
X025654Y006862D01*
X025654Y007020D02*
X025814Y007020D01*
X025814Y007179D02*
X025654Y007179D01*
X025654Y007337D02*
X025814Y007337D01*
X025814Y007496D02*
X025654Y007496D01*
X025600Y007654D02*
X025869Y007654D01*
X026036Y007813D02*
X025433Y007813D01*
X025036Y007813D02*
X024433Y007813D01*
X024472Y007796D02*
X024318Y007860D01*
X024151Y007860D01*
X023997Y007796D01*
X023878Y007678D01*
X023814Y007524D01*
X023814Y006836D01*
X023878Y006682D01*
X023997Y006564D01*
X024151Y006500D01*
X024318Y006500D01*
X024472Y006564D01*
X024591Y006682D01*
X024654Y006836D01*
X024654Y007524D01*
X024591Y007678D01*
X024472Y007796D01*
X024600Y007654D02*
X024869Y007654D01*
X024814Y007496D02*
X024654Y007496D01*
X024654Y007337D02*
X024814Y007337D01*
X024814Y007179D02*
X024654Y007179D01*
X024654Y007020D02*
X024814Y007020D01*
X024814Y006862D02*
X024654Y006862D01*
X024599Y006703D02*
X024870Y006703D01*
X025043Y006545D02*
X024425Y006545D01*
X024043Y006545D02*
X023425Y006545D01*
X023599Y006703D02*
X023870Y006703D01*
X023814Y006862D02*
X023654Y006862D01*
X023654Y007020D02*
X023814Y007020D01*
X023814Y007179D02*
X023654Y007179D01*
X023654Y007337D02*
X023814Y007337D01*
X023814Y007496D02*
X023654Y007496D01*
X023600Y007654D02*
X023869Y007654D01*
X024036Y007813D02*
X023433Y007813D01*
X022975Y008130D02*
X022044Y008130D01*
X022044Y008288D02*
X023133Y008288D01*
X023292Y008447D02*
X022044Y008447D01*
X022044Y008605D02*
X023450Y008605D01*
X023609Y008764D02*
X022044Y008764D01*
X022044Y008922D02*
X023767Y008922D01*
X023926Y009081D02*
X022044Y009081D01*
X022044Y009239D02*
X024084Y009239D01*
X024243Y009398D02*
X022044Y009398D01*
X022044Y009556D02*
X024401Y009556D01*
X024560Y009715D02*
X022044Y009715D01*
X022044Y009873D02*
X024718Y009873D01*
X024877Y010032D02*
X022044Y010032D01*
X022044Y010190D02*
X025035Y010190D01*
X025194Y010349D02*
X022044Y010349D01*
X022044Y010507D02*
X025352Y010507D01*
X025434Y010589D02*
X022659Y007813D01*
X022591Y007746D01*
X022571Y007697D01*
X022472Y007796D01*
X022318Y007860D01*
X022151Y007860D01*
X022044Y007816D01*
X022044Y011516D01*
X023065Y012536D01*
X023151Y012500D01*
X023318Y012500D01*
X023355Y012515D01*
X023604Y012267D01*
X023692Y012230D01*
X024462Y012230D01*
X024550Y012267D01*
X024618Y012334D01*
X024888Y012604D01*
X024900Y012633D01*
X024948Y012584D01*
X025004Y012544D01*
X025066Y012512D01*
X025131Y012491D01*
X025200Y012480D01*
X025234Y012480D01*
X025234Y013180D01*
X025234Y013180D01*
X025234Y012480D01*
X025269Y012480D01*
X025338Y012491D01*
X025403Y012512D01*
X025434Y012528D01*
X025434Y010589D01*
X025434Y010666D02*
X022044Y010666D01*
X022044Y010824D02*
X025434Y010824D01*
X025434Y010983D02*
X022044Y010983D01*
X022044Y011141D02*
X025434Y011141D01*
X025434Y011300D02*
X022044Y011300D01*
X022044Y011458D02*
X025434Y011458D01*
X025434Y011617D02*
X022145Y011617D01*
X022304Y011775D02*
X025434Y011775D01*
X025434Y011934D02*
X022462Y011934D01*
X022621Y012092D02*
X025434Y012092D01*
X025434Y012251D02*
X024512Y012251D01*
X024414Y012470D02*
X023739Y012470D01*
X023244Y012965D01*
X023234Y013180D01*
X023199Y013145D01*
X023199Y013010D01*
X021804Y011615D01*
X021804Y006890D01*
X021714Y006800D01*
X022794Y006350D02*
X022794Y007610D01*
X025674Y010490D01*
X025674Y013505D01*
X026214Y014045D01*
X026214Y014675D01*
X026234Y014680D01*
X026454Y014153D02*
X027045Y014153D01*
X027045Y014311D02*
X026816Y014311D01*
X026945Y014470D02*
X027045Y014470D01*
X027045Y014628D02*
X026994Y014628D01*
X026988Y014787D02*
X027045Y014787D01*
X027045Y014945D02*
X026920Y014945D01*
X027045Y015104D02*
X026714Y015104D01*
X026626Y015220D02*
X026795Y015290D01*
X026924Y015419D01*
X026994Y015588D01*
X026994Y015771D01*
X026924Y015941D01*
X026795Y016070D01*
X026626Y016140D01*
X025843Y016140D01*
X025674Y016070D01*
X025545Y015941D01*
X025474Y015771D01*
X025474Y015588D01*
X025545Y015419D01*
X025674Y015290D01*
X025843Y015220D01*
X026626Y015220D01*
X026727Y015262D02*
X027045Y015262D01*
X027045Y015421D02*
X026925Y015421D01*
X026991Y015579D02*
X027045Y015579D01*
X027045Y015738D02*
X026994Y015738D01*
X026943Y015896D02*
X027045Y015896D01*
X027045Y016055D02*
X026811Y016055D01*
X026795Y016290D02*
X026626Y016220D01*
X025843Y016220D01*
X025674Y016290D01*
X025545Y016419D01*
X025534Y016445D01*
X024366Y016445D01*
X024293Y016372D02*
X025592Y016372D01*
X025658Y016055D02*
X023242Y016055D01*
X023083Y016213D02*
X027045Y016213D01*
X027045Y016372D02*
X026877Y016372D01*
X026924Y016419D02*
X026795Y016290D01*
X026924Y016419D02*
X026994Y016588D01*
X026994Y016771D01*
X026924Y016941D01*
X026816Y017049D01*
X027045Y017279D01*
X027045Y017164D02*
X026930Y017164D01*
X026859Y017006D02*
X027045Y017006D01*
X027045Y016847D02*
X026963Y016847D01*
X026994Y016689D02*
X027045Y016689D01*
X027045Y016530D02*
X026970Y016530D01*
X025526Y015896D02*
X023400Y015896D01*
X023559Y015738D02*
X025474Y015738D01*
X025478Y015579D02*
X023717Y015579D01*
X023876Y015421D02*
X025544Y015421D01*
X025742Y015262D02*
X024034Y015262D01*
X024193Y015104D02*
X025755Y015104D01*
X025549Y014945D02*
X024351Y014945D01*
X024444Y014787D02*
X025481Y014787D01*
X025474Y014628D02*
X024444Y014628D01*
X024444Y014470D02*
X025524Y014470D01*
X025653Y014311D02*
X025279Y014311D01*
X025416Y014153D02*
X025974Y014153D01*
X025824Y013994D02*
X025449Y013994D01*
X025427Y013836D02*
X025666Y013836D01*
X025089Y013910D02*
X024684Y013505D01*
X024684Y012740D01*
X024414Y012470D01*
X024693Y012409D02*
X025434Y012409D01*
X025234Y012568D02*
X025234Y012568D01*
X025234Y012726D02*
X025234Y012726D01*
X025234Y012885D02*
X025234Y012885D01*
X025234Y013043D02*
X025234Y013043D01*
X024971Y012568D02*
X024851Y012568D01*
X023642Y012251D02*
X022779Y012251D01*
X022938Y012409D02*
X023461Y012409D01*
X022629Y013677D02*
X022591Y013677D01*
X022629Y013836D02*
X022377Y013836D01*
X022092Y013836D02*
X021924Y013836D01*
X021924Y013994D02*
X022717Y013994D01*
X022875Y014153D02*
X021924Y014153D01*
X021959Y014311D02*
X022509Y014311D01*
X022561Y014260D02*
X022314Y014506D01*
X022314Y014854D01*
X022561Y015100D01*
X022908Y015100D01*
X023154Y014854D01*
X023154Y014506D01*
X022908Y014260D01*
X022561Y014260D01*
X022351Y014470D02*
X022118Y014470D01*
X022154Y014628D02*
X022314Y014628D01*
X022314Y014787D02*
X022154Y014787D01*
X022063Y014945D02*
X022406Y014945D01*
X023063Y014945D02*
X023406Y014945D01*
X023314Y014787D02*
X023154Y014787D01*
X023154Y014628D02*
X023314Y014628D01*
X023192Y014470D02*
X023118Y014470D01*
X023034Y014311D02*
X022959Y014311D01*
X023599Y015104D02*
X020621Y015104D01*
X020654Y014945D02*
X021406Y014945D01*
X021314Y014787D02*
X020654Y014787D01*
X020654Y014628D02*
X021314Y014628D01*
X021351Y014470D02*
X020654Y014470D01*
X020644Y014311D02*
X021504Y014311D01*
X021504Y014153D02*
X020561Y014153D01*
X020591Y013677D02*
X020878Y013677D01*
X020814Y013519D02*
X020654Y013519D01*
X020654Y013360D02*
X020814Y013360D01*
X020814Y013202D02*
X020654Y013202D01*
X020654Y013043D02*
X020814Y013043D01*
X020814Y012885D02*
X020654Y012885D01*
X020609Y012726D02*
X020860Y012726D01*
X020993Y012568D02*
X020476Y012568D01*
X020506Y015262D02*
X023440Y015262D01*
X023282Y015421D02*
X013442Y015421D01*
X013600Y015579D02*
X023123Y015579D01*
X022965Y015738D02*
X020856Y015738D01*
X020971Y015896D02*
X022806Y015896D01*
X022648Y016055D02*
X020994Y016055D01*
X020413Y015738D02*
X013759Y015738D01*
X014506Y015262D02*
X014963Y015262D01*
X014848Y015104D02*
X014621Y015104D01*
X014654Y014945D02*
X014814Y014945D01*
X014814Y014787D02*
X014654Y014787D01*
X014654Y014628D02*
X014814Y014628D01*
X014814Y014470D02*
X014654Y014470D01*
X014644Y014311D02*
X014825Y014311D01*
X014908Y014153D02*
X014561Y014153D01*
X014591Y013677D02*
X014878Y013677D01*
X014814Y013519D02*
X014654Y013519D01*
X014654Y013360D02*
X014814Y013360D01*
X014814Y013202D02*
X014654Y013202D01*
X014654Y013043D02*
X014814Y013043D01*
X014814Y012885D02*
X014654Y012885D01*
X014609Y012726D02*
X014860Y012726D01*
X014993Y012568D02*
X014476Y012568D01*
X013993Y012568D02*
X013476Y012568D01*
X013609Y012726D02*
X013860Y012726D01*
X013814Y012885D02*
X013654Y012885D01*
X013654Y013043D02*
X013814Y013043D01*
X013814Y013202D02*
X013654Y013202D01*
X013654Y013360D02*
X013814Y013360D01*
X013814Y013519D02*
X013654Y013519D01*
X013591Y013677D02*
X013878Y013677D01*
X013092Y013836D02*
X012377Y013836D01*
X012591Y013677D02*
X012878Y013677D01*
X012814Y013519D02*
X012654Y013519D01*
X012654Y013360D02*
X012814Y013360D01*
X012814Y013202D02*
X012654Y013202D01*
X012654Y013043D02*
X012814Y013043D01*
X012814Y012885D02*
X012654Y012885D01*
X012609Y012726D02*
X012860Y012726D01*
X012993Y012568D02*
X012476Y012568D01*
X011993Y012568D02*
X011759Y012568D01*
X011615Y012409D02*
X013044Y012409D01*
X013044Y012251D02*
X011634Y012251D01*
X011582Y012092D02*
X013044Y012092D01*
X013044Y011934D02*
X011355Y011934D01*
X011194Y011934D02*
X010404Y011934D01*
X010404Y012092D02*
X010967Y012092D01*
X010914Y012251D02*
X010404Y012251D01*
X010404Y012409D02*
X010934Y012409D01*
X010993Y012568D02*
X010476Y012568D01*
X010609Y012726D02*
X010860Y012726D01*
X010814Y012885D02*
X010654Y012885D01*
X010654Y013043D02*
X010814Y013043D01*
X010814Y013202D02*
X010654Y013202D01*
X010654Y013360D02*
X010814Y013360D01*
X010814Y013519D02*
X010654Y013519D01*
X010591Y013677D02*
X010878Y013677D01*
X011092Y013836D02*
X010377Y013836D01*
X010404Y011775D02*
X013044Y011775D01*
X013044Y011617D02*
X010404Y011617D01*
X010404Y011458D02*
X013044Y011458D01*
X013044Y011300D02*
X010404Y011300D01*
X010404Y011141D02*
X013044Y011141D01*
X013044Y010983D02*
X010404Y010983D01*
X010404Y010824D02*
X013044Y010824D01*
X013044Y010666D02*
X010404Y010666D01*
X010404Y010507D02*
X013044Y010507D01*
X013044Y010349D02*
X010404Y010349D01*
X010404Y010190D02*
X013044Y010190D01*
X013044Y010032D02*
X010404Y010032D01*
X010404Y009873D02*
X013044Y009873D01*
X013044Y009715D02*
X010404Y009715D01*
X010404Y009556D02*
X013044Y009556D01*
X013044Y009398D02*
X010404Y009398D01*
X010404Y009239D02*
X013044Y009239D01*
X013044Y009081D02*
X012911Y009081D01*
X012698Y009081D02*
X010404Y009081D01*
X010404Y008922D02*
X012492Y008922D01*
X012444Y008764D02*
X010404Y008764D01*
X010404Y008605D02*
X012378Y008605D01*
X012219Y008447D02*
X010404Y008447D01*
X010404Y008288D02*
X012061Y008288D01*
X011902Y008130D02*
X010404Y008130D01*
X010404Y007971D02*
X011744Y007971D01*
X011585Y007813D02*
X011433Y007813D01*
X011036Y007813D02*
X010433Y007813D01*
X010600Y007654D02*
X010869Y007654D01*
X010814Y007496D02*
X010654Y007496D01*
X010654Y007337D02*
X010814Y007337D01*
X010814Y007179D02*
X010654Y007179D01*
X010654Y007020D02*
X010814Y007020D01*
X010814Y006862D02*
X010654Y006862D01*
X010599Y006703D02*
X010870Y006703D01*
X011043Y006545D02*
X010425Y006545D01*
X010500Y006386D02*
X013629Y006386D01*
X013629Y006228D02*
X010659Y006228D01*
X010817Y006069D02*
X013629Y006069D01*
X013629Y005911D02*
X010976Y005911D01*
X011134Y005752D02*
X013629Y005752D01*
X013629Y005594D02*
X011293Y005594D01*
X011451Y005435D02*
X013629Y005435D01*
X013629Y005277D02*
X011610Y005277D01*
X011768Y005118D02*
X013629Y005118D01*
X013629Y004960D02*
X011927Y004960D01*
X012085Y004801D02*
X013629Y004801D01*
X013629Y004643D02*
X012244Y004643D01*
X012402Y004484D02*
X013629Y004484D01*
X013629Y004326D02*
X012561Y004326D01*
X012719Y004167D02*
X013629Y004167D01*
X013629Y004009D02*
X012878Y004009D01*
X012601Y003692D02*
X010000Y003692D01*
X010051Y003640D02*
X009054Y004637D01*
X009054Y006540D01*
X009151Y006500D01*
X009318Y006500D01*
X009472Y006564D01*
X009591Y006682D01*
X009624Y006764D01*
X009624Y006668D01*
X012729Y003563D01*
X012848Y003444D01*
X012774Y003371D01*
X012774Y002989D01*
X013044Y002720D01*
X013425Y002720D01*
X013589Y002884D01*
X013809Y002663D01*
X013924Y002548D01*
X013754Y002379D01*
X013754Y002200D01*
X014214Y002200D01*
X014214Y002160D01*
X013754Y002160D01*
X013754Y001981D01*
X013811Y001925D01*
X013658Y001925D01*
X013714Y001981D01*
X013714Y002160D01*
X013254Y002160D01*
X013254Y002200D01*
X013214Y002200D01*
X013214Y002160D01*
X012754Y002160D01*
X012754Y001981D01*
X012811Y001925D01*
X012658Y001925D01*
X012714Y001981D01*
X012714Y002160D01*
X012254Y002160D01*
X012254Y002200D01*
X012214Y002200D01*
X012214Y002660D01*
X012036Y002660D01*
X011849Y002473D01*
X011513Y002808D01*
X011694Y002989D01*
X011694Y003371D01*
X011425Y003640D01*
X011044Y003640D01*
X010774Y003371D01*
X010774Y002989D01*
X010804Y002960D01*
X010731Y002960D01*
X010694Y002997D01*
X010694Y003371D01*
X010425Y003640D01*
X010051Y003640D01*
X009841Y003850D02*
X012442Y003850D01*
X012425Y003640D02*
X012044Y003640D01*
X011774Y003371D01*
X011774Y002989D01*
X012044Y002720D01*
X012425Y002720D01*
X012694Y002989D01*
X012694Y003371D01*
X012425Y003640D01*
X012532Y003533D02*
X012759Y003533D01*
X012778Y003375D02*
X012691Y003375D01*
X012694Y003216D02*
X012774Y003216D01*
X012774Y003058D02*
X012694Y003058D01*
X012604Y002899D02*
X012865Y002899D01*
X013023Y002741D02*
X012446Y002741D01*
X012433Y002660D02*
X012254Y002660D01*
X012254Y002200D01*
X012714Y002200D01*
X012714Y002379D01*
X012433Y002660D01*
X012511Y002582D02*
X012958Y002582D01*
X013036Y002660D02*
X012754Y002379D01*
X012754Y002200D01*
X013214Y002200D01*
X013214Y002660D01*
X013036Y002660D01*
X013214Y002582D02*
X013254Y002582D01*
X013254Y002660D02*
X013254Y002200D01*
X013714Y002200D01*
X013714Y002379D01*
X013433Y002660D01*
X013254Y002660D01*
X013446Y002741D02*
X013732Y002741D01*
X013890Y002582D02*
X013511Y002582D01*
X013670Y002424D02*
X013799Y002424D01*
X013754Y002265D02*
X013714Y002265D01*
X013714Y002107D02*
X013754Y002107D01*
X013788Y001948D02*
X013681Y001948D01*
X013254Y002265D02*
X013214Y002265D01*
X013214Y002424D02*
X013254Y002424D01*
X012799Y002424D02*
X012670Y002424D01*
X012714Y002265D02*
X012754Y002265D01*
X012754Y002107D02*
X012714Y002107D01*
X012681Y001948D02*
X012788Y001948D01*
X012254Y002265D02*
X012214Y002265D01*
X012214Y002424D02*
X012254Y002424D01*
X012254Y002582D02*
X012214Y002582D01*
X012023Y002741D02*
X011581Y002741D01*
X011604Y002899D02*
X011865Y002899D01*
X011774Y003058D02*
X011694Y003058D01*
X011694Y003216D02*
X011774Y003216D01*
X011778Y003375D02*
X011691Y003375D01*
X011532Y003533D02*
X011937Y003533D01*
X012284Y004009D02*
X009683Y004009D01*
X009524Y004167D02*
X012125Y004167D01*
X011967Y004326D02*
X009366Y004326D01*
X009207Y004484D02*
X011808Y004484D01*
X011650Y004643D02*
X009054Y004643D01*
X009054Y004801D02*
X011491Y004801D01*
X011333Y004960D02*
X009054Y004960D01*
X009054Y005118D02*
X011174Y005118D01*
X011016Y005277D02*
X009054Y005277D01*
X009054Y005435D02*
X010857Y005435D01*
X010699Y005594D02*
X009054Y005594D01*
X009054Y005752D02*
X010540Y005752D01*
X010382Y005911D02*
X009054Y005911D01*
X009054Y006069D02*
X010223Y006069D01*
X010065Y006228D02*
X009054Y006228D01*
X009054Y006386D02*
X009906Y006386D01*
X009748Y006545D02*
X009425Y006545D01*
X009599Y006703D02*
X009624Y006703D01*
X011425Y006545D02*
X012043Y006545D01*
X011870Y006703D02*
X011599Y006703D01*
X011654Y006862D02*
X011814Y006862D01*
X011814Y007020D02*
X011654Y007020D01*
X011654Y007179D02*
X011814Y007179D01*
X011814Y007337D02*
X011703Y007337D01*
X012433Y007813D02*
X013036Y007813D01*
X013044Y007971D02*
X012337Y007971D01*
X012496Y008130D02*
X013044Y008130D01*
X013044Y008288D02*
X012654Y008288D01*
X013025Y008447D02*
X013044Y008447D01*
X012869Y007654D02*
X012600Y007654D01*
X012654Y007496D02*
X012814Y007496D01*
X012814Y007337D02*
X012654Y007337D01*
X012654Y007179D02*
X012814Y007179D01*
X012814Y007020D02*
X012654Y007020D01*
X012654Y006862D02*
X012814Y006862D01*
X012870Y006703D02*
X012599Y006703D01*
X012425Y006545D02*
X013043Y006545D01*
X013425Y006545D02*
X013629Y006545D01*
X013629Y006703D02*
X013599Y006703D01*
X015433Y007813D02*
X015725Y007813D01*
X013629Y003850D02*
X013486Y003850D01*
X011958Y002582D02*
X011739Y002582D01*
X010774Y003058D02*
X010694Y003058D01*
X010694Y003216D02*
X010774Y003216D01*
X010778Y003375D02*
X010691Y003375D01*
X010532Y003533D02*
X010937Y003533D01*
X009798Y002582D02*
X009511Y002582D01*
X009433Y002660D02*
X009254Y002660D01*
X009254Y002200D01*
X009214Y002200D01*
X009214Y002160D01*
X008754Y002160D01*
X008754Y001981D01*
X009036Y001700D01*
X009214Y001700D01*
X009214Y002160D01*
X009254Y002160D01*
X009254Y001700D01*
X009433Y001700D01*
X009714Y001981D01*
X009714Y002160D01*
X009254Y002160D01*
X009254Y002200D01*
X009714Y002200D01*
X009714Y002379D01*
X009433Y002660D01*
X009446Y002741D02*
X009640Y002741D01*
X009670Y002424D02*
X009799Y002424D01*
X009754Y002265D02*
X009714Y002265D01*
X009714Y002107D02*
X009754Y002107D01*
X009788Y001948D02*
X009681Y001948D01*
X009523Y001790D02*
X009946Y001790D01*
X010214Y001790D02*
X010254Y001790D01*
X010254Y001948D02*
X010214Y001948D01*
X010214Y002107D02*
X010254Y002107D01*
X010523Y001790D02*
X010591Y001790D01*
X010749Y001631D02*
X004427Y001631D01*
X004470Y001790D02*
X006946Y001790D01*
X007036Y001700D02*
X007214Y001700D01*
X007214Y002160D01*
X006754Y002160D01*
X006754Y001981D01*
X007036Y001700D01*
X007214Y001790D02*
X007254Y001790D01*
X007254Y001700D02*
X007433Y001700D01*
X007714Y001981D01*
X007714Y002160D01*
X007254Y002160D01*
X007254Y001700D01*
X007254Y001948D02*
X007214Y001948D01*
X007214Y002107D02*
X007254Y002107D01*
X007254Y002160D02*
X007214Y002160D01*
X007214Y002200D01*
X006754Y002200D01*
X006754Y002379D01*
X007036Y002660D01*
X007214Y002660D01*
X007214Y002200D01*
X007254Y002200D01*
X007254Y002660D01*
X007433Y002660D01*
X007714Y002379D01*
X007714Y002200D01*
X007254Y002200D01*
X007254Y002160D01*
X007254Y002265D02*
X007214Y002265D01*
X007214Y002424D02*
X007254Y002424D01*
X007254Y002582D02*
X007214Y002582D01*
X007044Y002720D02*
X007425Y002720D01*
X007694Y002989D01*
X007694Y003371D01*
X007425Y003640D01*
X007044Y003640D01*
X006774Y003371D01*
X006774Y002989D01*
X007044Y002720D01*
X007023Y002741D02*
X004312Y002741D01*
X004401Y002582D02*
X006958Y002582D01*
X006799Y002424D02*
X004444Y002424D01*
X004486Y002265D02*
X006754Y002265D01*
X006754Y002107D02*
X004493Y002107D01*
X004493Y001948D02*
X006788Y001948D01*
X007511Y002582D02*
X007958Y002582D01*
X008036Y002660D02*
X007754Y002379D01*
X007754Y002200D01*
X008214Y002200D01*
X008214Y002160D01*
X007754Y002160D01*
X007754Y001981D01*
X008036Y001700D01*
X008214Y001700D01*
X008214Y002160D01*
X008254Y002160D01*
X008254Y001700D01*
X008433Y001700D01*
X008714Y001981D01*
X008714Y002160D01*
X008254Y002160D01*
X008254Y002200D01*
X008214Y002200D01*
X008214Y002660D01*
X008036Y002660D01*
X008044Y002720D02*
X008425Y002720D01*
X008694Y002989D01*
X008694Y003371D01*
X008425Y003640D01*
X008044Y003640D01*
X007774Y003371D01*
X007774Y002989D01*
X008044Y002720D01*
X008023Y002741D02*
X007446Y002741D01*
X007604Y002899D02*
X007865Y002899D01*
X007774Y003058D02*
X007694Y003058D01*
X007694Y003216D02*
X007774Y003216D01*
X007778Y003375D02*
X007691Y003375D01*
X007532Y003533D02*
X007937Y003533D01*
X008532Y003533D02*
X008937Y003533D01*
X009049Y003692D02*
X002014Y003692D01*
X002014Y003850D02*
X008890Y003850D01*
X008732Y004009D02*
X002014Y004009D01*
X002014Y003533D02*
X006937Y003533D01*
X006778Y003375D02*
X003533Y003375D01*
X003868Y003216D02*
X006774Y003216D01*
X006774Y003058D02*
X004065Y003058D01*
X004221Y002899D02*
X006865Y002899D01*
X007670Y002424D02*
X007799Y002424D01*
X007754Y002265D02*
X007714Y002265D01*
X007714Y002107D02*
X007754Y002107D01*
X007788Y001948D02*
X007681Y001948D01*
X007523Y001790D02*
X007946Y001790D01*
X008214Y001790D02*
X008254Y001790D01*
X008254Y001948D02*
X008214Y001948D01*
X008214Y002107D02*
X008254Y002107D01*
X008254Y002200D02*
X008714Y002200D01*
X008714Y002379D01*
X008433Y002660D01*
X008254Y002660D01*
X008254Y002200D01*
X008254Y002265D02*
X008214Y002265D01*
X008214Y002424D02*
X008254Y002424D01*
X008254Y002582D02*
X008214Y002582D01*
X008446Y002741D02*
X009023Y002741D01*
X009036Y002660D02*
X008754Y002379D01*
X008754Y002200D01*
X009214Y002200D01*
X009214Y002660D01*
X009036Y002660D01*
X008958Y002582D02*
X008511Y002582D01*
X008670Y002424D02*
X008799Y002424D01*
X008754Y002265D02*
X008714Y002265D01*
X008714Y002107D02*
X008754Y002107D01*
X008788Y001948D02*
X008681Y001948D01*
X008523Y001790D02*
X008946Y001790D01*
X009214Y001790D02*
X009254Y001790D01*
X009254Y001948D02*
X009214Y001948D01*
X009214Y002107D02*
X009254Y002107D01*
X009254Y002265D02*
X009214Y002265D01*
X009214Y002424D02*
X009254Y002424D01*
X009254Y002582D02*
X009214Y002582D01*
X008865Y002899D02*
X008604Y002899D01*
X008694Y003058D02*
X008774Y003058D01*
X008774Y003216D02*
X008694Y003216D01*
X008691Y003375D02*
X008778Y003375D01*
X010908Y001473D02*
X004368Y001473D01*
X004277Y001314D02*
X011066Y001314D01*
X004162Y001156D02*
X024897Y001156D01*
X024783Y001314D02*
X020393Y001314D01*
X020551Y001473D02*
X024691Y001473D01*
X024632Y001631D02*
X020710Y001631D01*
X020868Y001790D02*
X020946Y001790D01*
X021214Y001790D02*
X021254Y001790D01*
X021254Y001948D02*
X021214Y001948D01*
X021214Y002107D02*
X021254Y002107D01*
X021523Y001790D02*
X021946Y001790D01*
X022036Y001700D02*
X021754Y001981D01*
X021754Y002160D01*
X022214Y002160D01*
X022214Y002200D01*
X021754Y002200D01*
X021754Y002379D01*
X022036Y002660D01*
X022214Y002660D01*
X022214Y002200D01*
X022254Y002200D01*
X022254Y002660D01*
X022433Y002660D01*
X022714Y002379D01*
X022714Y002200D01*
X022254Y002200D01*
X022254Y002160D01*
X022254Y001700D01*
X022433Y001700D01*
X022714Y001981D01*
X022714Y002160D01*
X022254Y002160D01*
X022214Y002160D01*
X022214Y001700D01*
X022036Y001700D01*
X022214Y001790D02*
X022254Y001790D01*
X022254Y001948D02*
X022214Y001948D01*
X022214Y002107D02*
X022254Y002107D01*
X022254Y002265D02*
X022214Y002265D01*
X022214Y002424D02*
X022254Y002424D01*
X022254Y002582D02*
X022214Y002582D01*
X022023Y002741D02*
X021819Y002741D01*
X021958Y002582D02*
X021661Y002582D01*
X021670Y002424D02*
X021799Y002424D01*
X021754Y002265D02*
X021714Y002265D01*
X021714Y002107D02*
X021754Y002107D01*
X021788Y001948D02*
X021681Y001948D01*
X022523Y001790D02*
X022946Y001790D01*
X022788Y001948D02*
X022681Y001948D01*
X022714Y002107D02*
X022754Y002107D01*
X022754Y002265D02*
X022714Y002265D01*
X022670Y002424D02*
X022799Y002424D01*
X022958Y002582D02*
X022511Y002582D01*
X022446Y002741D02*
X023023Y002741D01*
X022865Y002899D02*
X022604Y002899D01*
X022694Y003058D02*
X022774Y003058D01*
X022774Y003216D02*
X022694Y003216D01*
X022691Y003375D02*
X022778Y003375D01*
X023214Y002582D02*
X023254Y002582D01*
X023254Y002424D02*
X023214Y002424D01*
X025056Y000997D02*
X004004Y000997D01*
X002160Y003058D02*
X002014Y003058D01*
X002014Y003216D02*
X002357Y003216D01*
X002692Y003375D02*
X002014Y003375D01*
X002734Y005680D02*
X002769Y005720D01*
X002769Y006035D01*
X004209Y007475D01*
X004209Y009230D01*
X002769Y010670D01*
X002734Y010680D01*
X002264Y022078D02*
X002191Y022078D01*
X020617Y018115D02*
X022567Y018115D01*
X022779Y018497D02*
X022779Y018497D01*
X023394Y020493D02*
X023637Y020493D01*
X023537Y020651D02*
X023500Y020651D01*
X024444Y014311D02*
X024900Y014311D01*
X024763Y014153D02*
X024444Y014153D01*
X024444Y013994D02*
X024729Y013994D01*
X024676Y013836D02*
X024444Y013836D01*
X025089Y013910D02*
X025089Y014000D01*
X026427Y013836D02*
X027045Y013836D01*
X027045Y013994D02*
X026453Y013994D01*
X026606Y013677D02*
X027045Y013677D01*
X027045Y013519D02*
X026668Y013519D01*
X026674Y013360D02*
X027045Y013360D01*
X027045Y013202D02*
X026674Y013202D01*
X026629Y012726D02*
X027045Y012726D01*
X027045Y012568D02*
X026498Y012568D01*
X022816Y007971D02*
X022044Y007971D01*
X022433Y007813D02*
X022658Y007813D01*
X026702Y003216D02*
X027045Y003216D01*
X027045Y003058D02*
X026900Y003058D01*
D22*
X019734Y001850D03*
X018879Y004145D03*
X012804Y008735D03*
X011274Y012290D03*
X011814Y015080D03*
X011274Y018230D03*
X010194Y019805D03*
X011949Y020210D03*
X009474Y022325D03*
X006774Y017780D03*
X018834Y018770D03*
X019644Y019760D03*
X021309Y019130D03*
X020634Y016025D03*
X025089Y014000D03*
X024999Y019130D03*
D23*
X021804Y019130D01*
X021444Y018770D01*
X018834Y018770D01*
X018699Y018410D02*
X017529Y019580D01*
X017529Y021065D01*
X017259Y021335D01*
X016494Y021335D01*
X016044Y020885D01*
X016030Y020849D01*
X015414Y020345D02*
X014829Y020345D01*
X014514Y020660D01*
X014514Y021065D01*
X014244Y021335D01*
X013569Y021335D01*
X013074Y021830D01*
X013030Y021849D01*
X012534Y021650D02*
X012534Y022055D01*
X012849Y022370D01*
X019509Y022370D01*
X020004Y021875D01*
X020030Y021849D01*
X020030Y020849D02*
X020004Y020840D01*
X019644Y020480D01*
X019644Y019760D01*
X018699Y018410D02*
X022569Y018410D01*
X023289Y017690D01*
X023694Y017690D01*
X023734Y017680D01*
X024594Y017240D02*
X026709Y017240D01*
X026979Y017510D01*
X026979Y018860D01*
X025854Y019985D01*
X025359Y019985D01*
X024549Y020795D01*
X024549Y021020D01*
X024234Y021335D01*
X023559Y021335D01*
X023064Y021830D01*
X023030Y021849D01*
X023030Y020849D02*
X023019Y020840D01*
X021309Y019130D01*
X018234Y017680D02*
X018204Y017690D01*
X018069Y017690D01*
X015414Y020345D01*
X014514Y019220D02*
X013659Y019220D01*
X012039Y020840D01*
X012030Y020849D01*
X011544Y020660D02*
X011544Y021065D01*
X011814Y021335D01*
X012219Y021335D01*
X012534Y021650D01*
X011544Y020660D02*
X009834Y018950D01*
X009834Y012740D01*
X010194Y012380D01*
X010194Y007205D01*
X010234Y007180D01*
X009834Y007430D02*
X009834Y006755D01*
X012939Y003650D01*
X013389Y003650D01*
X013794Y003245D01*
X013794Y002975D01*
X014019Y002750D01*
X018789Y002750D01*
X019194Y003155D01*
X019234Y003180D01*
X019689Y003335D02*
X019689Y003020D01*
X019284Y002615D01*
X019059Y002615D01*
X018699Y002255D01*
X018699Y002030D01*
X018384Y001715D01*
X012084Y001715D01*
X011679Y002120D01*
X011679Y002345D01*
X011274Y002750D01*
X010644Y002750D01*
X010239Y003155D01*
X010234Y003180D01*
X010194Y003200D01*
X008844Y004550D01*
X008844Y012020D01*
X008259Y012605D01*
X008259Y013145D01*
X008234Y013180D01*
X007809Y012785D02*
X007809Y014675D01*
X009654Y016520D01*
X009654Y019265D01*
X010194Y019805D01*
X009519Y020660D02*
X009519Y021380D01*
X009069Y021830D01*
X009030Y021849D01*
X009249Y022325D02*
X009204Y022370D01*
X007854Y022370D01*
X007539Y022055D01*
X007539Y021650D01*
X007224Y021335D01*
X006504Y021335D01*
X006054Y020885D01*
X006030Y020849D01*
X004659Y020075D02*
X008934Y020075D01*
X009519Y020660D01*
X009474Y022325D02*
X009249Y022325D01*
X011949Y020210D02*
X014199Y017960D01*
X014199Y017690D01*
X014234Y017680D01*
X013344Y016745D02*
X024099Y016745D01*
X024594Y017240D01*
X024279Y016655D02*
X024189Y016565D01*
X012939Y016565D01*
X011274Y018230D01*
X011499Y018590D02*
X013344Y016745D01*
X013749Y016025D02*
X020634Y016025D01*
X021714Y014675D02*
X021734Y014680D01*
X021714Y014675D02*
X021714Y012515D01*
X016809Y007610D01*
X016809Y005270D01*
X017079Y005000D01*
X021534Y005000D01*
X022209Y005675D01*
X022234Y005680D01*
X021234Y007180D02*
X021264Y007205D01*
X021264Y011390D01*
X022839Y012965D01*
X022839Y013820D01*
X023694Y014675D01*
X023734Y014680D01*
X024234Y014765D02*
X022614Y016385D01*
X012489Y016385D01*
X010734Y018140D01*
X010734Y018180D01*
X010329Y018365D02*
X010554Y018590D01*
X011499Y018590D01*
X010329Y018365D02*
X010329Y018005D01*
X011814Y016520D01*
X011814Y015080D01*
X011814Y014090D02*
X013749Y016025D01*
X011814Y014090D02*
X011814Y012920D01*
X011274Y012380D01*
X011274Y012290D01*
X013234Y013180D02*
X013254Y013145D01*
X013254Y008015D01*
X013839Y007430D01*
X013839Y003560D01*
X014199Y003200D01*
X014234Y003180D01*
X015234Y003200D02*
X015234Y003180D01*
X015234Y003200D02*
X015639Y003605D01*
X015639Y007430D01*
X019194Y010985D01*
X019194Y013145D01*
X019234Y013180D01*
X021219Y013145D02*
X021219Y012290D01*
X016629Y007700D01*
X016629Y004775D01*
X018204Y003200D01*
X018234Y003180D01*
X018879Y004145D02*
X019689Y003335D01*
X012804Y008735D02*
X011274Y007205D01*
X011234Y007180D01*
X009834Y007430D02*
X009249Y008015D01*
X009249Y013145D01*
X009234Y013180D01*
X008214Y012380D02*
X007809Y012785D01*
X008214Y012380D02*
X008214Y007205D01*
X008234Y007180D01*
X002734Y009680D02*
X002724Y009680D01*
X002724Y009770D01*
X002004Y010490D01*
X002004Y017420D01*
X004659Y020075D01*
X014514Y019220D02*
X016044Y017690D01*
X016224Y017690D01*
X016234Y017680D01*
X021234Y013180D02*
X021219Y013145D01*
X024234Y013180D02*
X024234Y014765D01*
X024279Y016655D02*
X026214Y016655D01*
X026234Y016680D01*
M02*
