G75*
%MOIN*%
%OFA0B0*%
%FSLAX24Y24*%
%IPPOS*%
%LPD*%
%AMOC8*
5,1,8,0,0,1.08239X$1,22.5*
%
%ADD10C,0.0030*%
%ADD11C,0.0060*%
%ADD12C,0.0050*%
%ADD13C,0.0040*%
%ADD14C,0.0080*%
%ADD15C,0.0100*%
%ADD16C,0.0120*%
%ADD17R,0.0200X0.0150*%
%ADD18C,0.0020*%
D10*
X007716Y005357D02*
X007778Y005295D01*
X007839Y005357D01*
X007901Y005295D01*
X007963Y005357D01*
X007963Y005542D01*
X008084Y005542D02*
X008084Y005357D01*
X008146Y005295D01*
X008208Y005357D01*
X008269Y005295D01*
X008331Y005357D01*
X008331Y005542D01*
X008452Y005542D02*
X008452Y005357D01*
X008514Y005295D01*
X008576Y005357D01*
X008638Y005295D01*
X008699Y005357D01*
X008699Y005542D01*
X008821Y005357D02*
X008883Y005357D01*
X008883Y005295D01*
X008821Y005295D01*
X008821Y005357D01*
X009005Y005295D02*
X009190Y005295D01*
X009252Y005357D01*
X009190Y005418D01*
X009067Y005418D01*
X009005Y005480D01*
X009067Y005542D01*
X009252Y005542D01*
X009373Y005542D02*
X009373Y005295D01*
X009497Y005295D02*
X009497Y005480D01*
X009558Y005542D01*
X009620Y005480D01*
X009620Y005295D01*
X009742Y005295D02*
X009927Y005295D01*
X009988Y005357D01*
X009988Y005480D01*
X009927Y005542D01*
X009742Y005542D01*
X009742Y005665D02*
X009742Y005295D01*
X009497Y005480D02*
X009435Y005542D01*
X009373Y005542D01*
X010110Y005357D02*
X010172Y005418D01*
X010357Y005418D01*
X010357Y005480D02*
X010357Y005295D01*
X010172Y005295D01*
X010110Y005357D01*
X010172Y005542D02*
X010295Y005542D01*
X010357Y005480D01*
X010478Y005418D02*
X010663Y005542D01*
X010785Y005480D02*
X010847Y005542D01*
X010970Y005542D01*
X011032Y005480D01*
X011032Y005418D01*
X010785Y005418D01*
X010785Y005357D02*
X010785Y005480D01*
X010785Y005357D02*
X010847Y005295D01*
X010970Y005295D01*
X011153Y005295D02*
X011153Y005542D01*
X011153Y005418D02*
X011277Y005542D01*
X011339Y005542D01*
X011460Y005357D02*
X011522Y005357D01*
X011522Y005295D01*
X011460Y005295D01*
X011460Y005357D01*
X011645Y005357D02*
X011706Y005295D01*
X011891Y005295D01*
X012013Y005357D02*
X012075Y005295D01*
X012198Y005295D01*
X012260Y005357D01*
X012260Y005480D01*
X012198Y005542D01*
X012075Y005542D01*
X012013Y005480D01*
X012013Y005357D01*
X011891Y005542D02*
X011706Y005542D01*
X011645Y005480D01*
X011645Y005357D01*
X012381Y005295D02*
X012381Y005542D01*
X012443Y005542D01*
X012505Y005480D01*
X012566Y005542D01*
X012628Y005480D01*
X012628Y005295D01*
X012505Y005295D02*
X012505Y005480D01*
X010663Y005295D02*
X010478Y005418D01*
X010478Y005295D02*
X010478Y005665D01*
X007716Y005542D02*
X007716Y005357D01*
X004365Y008495D02*
X004118Y008865D01*
X003996Y008865D02*
X003749Y008865D01*
X003873Y008865D02*
X003873Y008495D01*
X004118Y008495D02*
X004365Y008865D01*
X004365Y009495D02*
X004118Y009865D01*
X003996Y009804D02*
X003996Y009680D01*
X003935Y009618D01*
X003749Y009618D01*
X003749Y009495D02*
X003749Y009865D01*
X003935Y009865D01*
X003996Y009804D01*
X003873Y009618D02*
X003996Y009495D01*
X004118Y009495D02*
X004365Y009865D01*
X004241Y010495D02*
X004365Y010618D01*
X004365Y010865D01*
X004118Y010865D02*
X004118Y010618D01*
X004241Y010495D01*
X003996Y010557D02*
X003935Y010495D01*
X003811Y010495D01*
X003749Y010557D01*
X003749Y010680D02*
X003873Y010742D01*
X003935Y010742D01*
X003996Y010680D01*
X003996Y010557D01*
X003749Y010680D02*
X003749Y010865D01*
X003996Y010865D01*
X003935Y012495D02*
X003996Y012557D01*
X003996Y012680D01*
X003873Y012680D01*
X003749Y012557D02*
X003811Y012495D01*
X003935Y012495D01*
X004118Y012495D02*
X004118Y012865D01*
X004365Y012495D01*
X004365Y012865D01*
X004486Y012865D02*
X004671Y012865D01*
X004733Y012804D01*
X004733Y012557D01*
X004671Y012495D01*
X004486Y012495D01*
X004486Y012865D01*
X003996Y012804D02*
X003935Y012865D01*
X003811Y012865D01*
X003749Y012804D01*
X003749Y012557D01*
X003798Y020695D02*
X003749Y020743D01*
X003749Y020937D01*
X003798Y020985D01*
X003895Y020985D01*
X003943Y020937D01*
X003943Y020840D02*
X003846Y020840D01*
X003943Y020840D02*
X003943Y020743D01*
X003895Y020695D01*
X003798Y020695D01*
X003798Y021695D02*
X003749Y021743D01*
X003798Y021695D02*
X003895Y021695D01*
X003943Y021743D01*
X003943Y021840D01*
X003895Y021888D01*
X003846Y021888D01*
X003749Y021840D01*
X003749Y021985D01*
X003943Y021985D01*
X004044Y021985D02*
X004044Y021792D01*
X004141Y021695D01*
X004238Y021792D01*
X004238Y021985D01*
X024249Y017804D02*
X024249Y017557D01*
X024311Y017495D01*
X024435Y017495D01*
X024496Y017557D01*
X024496Y017680D01*
X024373Y017680D01*
X024496Y017804D02*
X024435Y017865D01*
X024311Y017865D01*
X024249Y017804D01*
X024618Y017865D02*
X024865Y017495D01*
X024865Y017865D01*
X024986Y017865D02*
X024986Y017495D01*
X025171Y017495D01*
X025233Y017557D01*
X025233Y017804D01*
X025171Y017865D01*
X024986Y017865D01*
X024618Y017865D02*
X024618Y017495D01*
X024680Y016865D02*
X024618Y016804D01*
X024618Y016557D01*
X024680Y016495D01*
X024803Y016495D01*
X024865Y016557D01*
X024986Y016495D02*
X024986Y016865D01*
X024865Y016804D02*
X024803Y016865D01*
X024680Y016865D01*
X024496Y016804D02*
X024435Y016865D01*
X024311Y016865D01*
X024249Y016804D01*
X024249Y016742D01*
X024311Y016680D01*
X024435Y016680D01*
X024496Y016618D01*
X024496Y016557D01*
X024435Y016495D01*
X024311Y016495D01*
X024249Y016557D01*
X024311Y015865D02*
X024249Y015804D01*
X024249Y015742D01*
X024311Y015680D01*
X024435Y015680D01*
X024496Y015618D01*
X024496Y015557D01*
X024435Y015495D01*
X024311Y015495D01*
X024249Y015557D01*
X024311Y015865D02*
X024435Y015865D01*
X024496Y015804D01*
X024618Y015865D02*
X024803Y015865D01*
X024865Y015804D01*
X024865Y015557D01*
X024803Y015495D01*
X024618Y015495D01*
X024618Y015865D01*
X024986Y015742D02*
X025110Y015865D01*
X025233Y015742D01*
X025233Y015495D01*
X025233Y015680D02*
X024986Y015680D01*
X024986Y015742D02*
X024986Y015495D01*
X025048Y014865D02*
X025171Y014865D01*
X025233Y014804D01*
X025233Y014742D01*
X025171Y014680D01*
X025233Y014618D01*
X025233Y014557D01*
X025171Y014495D01*
X025048Y014495D01*
X024986Y014557D01*
X024865Y014618D02*
X024741Y014495D01*
X024618Y014618D01*
X024618Y014865D01*
X024496Y014804D02*
X024496Y014742D01*
X024435Y014680D01*
X024496Y014618D01*
X024496Y014557D01*
X024435Y014495D01*
X024311Y014495D01*
X024249Y014557D01*
X024373Y014680D02*
X024435Y014680D01*
X024496Y014804D02*
X024435Y014865D01*
X024311Y014865D01*
X024249Y014804D01*
X024865Y014865D02*
X024865Y014618D01*
X024986Y014804D02*
X025048Y014865D01*
X025110Y014680D02*
X025171Y014680D01*
X025233Y016495D02*
X024986Y016495D01*
X024935Y018495D02*
X024811Y018495D01*
X024749Y018557D01*
X024749Y018680D02*
X024873Y018742D01*
X024935Y018742D01*
X024996Y018680D01*
X024996Y018557D01*
X024935Y018495D01*
X025118Y018618D02*
X025241Y018495D01*
X025365Y018618D01*
X025365Y018865D01*
X025118Y018865D02*
X025118Y018618D01*
X024996Y018865D02*
X024749Y018865D01*
X024749Y018680D01*
D11*
X002334Y004180D02*
X002234Y004280D01*
X002234Y005080D01*
X002334Y005180D01*
X002234Y005280D01*
X002234Y006080D01*
X002334Y006180D01*
X003134Y006180D01*
X003234Y006080D01*
X003234Y005280D01*
X003134Y005180D01*
X003234Y005080D01*
X003234Y004280D01*
X003134Y004180D01*
X002334Y004180D01*
X002484Y007180D02*
X002984Y007180D01*
X003234Y007430D01*
X003234Y007930D01*
X002984Y008180D01*
X003234Y008430D01*
X003234Y008930D01*
X002984Y009180D01*
X003234Y009430D01*
X003234Y009930D01*
X002984Y010180D01*
X003234Y010430D01*
X003234Y010930D01*
X002984Y011180D01*
X003234Y011430D01*
X003234Y011930D01*
X002984Y012180D01*
X003234Y012430D01*
X003234Y012930D01*
X002984Y013180D01*
X002484Y013180D01*
X002234Y012930D01*
X002234Y012430D01*
X002484Y012180D01*
X002234Y011930D01*
X002234Y011430D01*
X002484Y011180D01*
X002234Y010930D01*
X002234Y010430D01*
X002484Y010180D01*
X002234Y009930D01*
X002234Y009430D01*
X002484Y009180D01*
X002234Y008930D01*
X002234Y008430D01*
X002484Y008180D01*
X002234Y007930D01*
X002234Y007430D01*
X002484Y007180D01*
X005757Y008468D02*
X006611Y008468D01*
X006504Y008361D02*
X006504Y008575D01*
X006398Y008682D01*
X006291Y008682D01*
X006184Y008575D01*
X006184Y008361D01*
X006077Y008255D01*
X005971Y008255D01*
X005864Y008361D01*
X005864Y008575D01*
X005971Y008682D01*
X005971Y008899D02*
X005864Y009006D01*
X005864Y009219D01*
X005971Y009326D01*
X006077Y009326D01*
X006504Y008899D01*
X006504Y009326D01*
X006734Y009730D02*
X006734Y007530D01*
X026734Y007530D01*
X026734Y012830D01*
X006734Y012830D01*
X006734Y010530D01*
X006773Y010528D01*
X006812Y010522D01*
X006850Y010513D01*
X006887Y010500D01*
X006923Y010483D01*
X006956Y010463D01*
X006988Y010439D01*
X007017Y010413D01*
X007043Y010384D01*
X007067Y010352D01*
X007087Y010319D01*
X007104Y010283D01*
X007117Y010246D01*
X007126Y010208D01*
X007132Y010169D01*
X007134Y010130D01*
X007132Y010091D01*
X007126Y010052D01*
X007117Y010014D01*
X007104Y009977D01*
X007087Y009941D01*
X007067Y009908D01*
X007043Y009876D01*
X007017Y009847D01*
X006988Y009821D01*
X006956Y009797D01*
X006923Y009777D01*
X006887Y009760D01*
X006850Y009747D01*
X006812Y009738D01*
X006773Y009732D01*
X006734Y009730D01*
X006504Y008361D02*
X006398Y008255D01*
X006398Y008037D02*
X005864Y008037D01*
X005864Y007610D02*
X006398Y007610D01*
X006504Y007717D01*
X006504Y007930D01*
X006398Y008037D01*
X006634Y011730D02*
X005834Y011730D01*
X005817Y011732D01*
X005800Y011736D01*
X005784Y011743D01*
X005770Y011753D01*
X005757Y011766D01*
X005747Y011780D01*
X005740Y011796D01*
X005736Y011813D01*
X005734Y011830D01*
X005734Y013530D01*
X005736Y013547D01*
X005740Y013564D01*
X005747Y013580D01*
X005757Y013594D01*
X005770Y013607D01*
X005784Y013617D01*
X005800Y013624D01*
X005817Y013628D01*
X005834Y013630D01*
X006634Y013630D01*
X006651Y013628D01*
X006668Y013624D01*
X006684Y013617D01*
X006698Y013607D01*
X006711Y013594D01*
X006721Y013580D01*
X006728Y013564D01*
X006732Y013547D01*
X006734Y013530D01*
X006734Y011830D01*
X006732Y011813D01*
X006728Y011796D01*
X006721Y011780D01*
X006711Y011766D01*
X006698Y011753D01*
X006684Y011743D01*
X006668Y011736D01*
X006651Y011732D01*
X006634Y011730D01*
X006234Y012530D02*
X006234Y012580D01*
X006234Y012780D02*
X006234Y012830D01*
X007134Y014330D02*
X011334Y014330D01*
X011364Y014332D01*
X011394Y014337D01*
X011423Y014346D01*
X011450Y014359D01*
X011476Y014374D01*
X011500Y014393D01*
X011521Y014414D01*
X011540Y014438D01*
X011555Y014464D01*
X011568Y014491D01*
X011577Y014520D01*
X011582Y014550D01*
X011584Y014580D01*
X011584Y018780D01*
X011582Y018810D01*
X011577Y018840D01*
X011568Y018869D01*
X011555Y018896D01*
X011540Y018922D01*
X011521Y018946D01*
X011500Y018967D01*
X011476Y018986D01*
X011450Y019001D01*
X011423Y019014D01*
X011394Y019023D01*
X011364Y019028D01*
X011334Y019030D01*
X007134Y019030D01*
X007104Y019028D01*
X007074Y019023D01*
X007045Y019014D01*
X007018Y019001D01*
X006992Y018986D01*
X006968Y018967D01*
X006947Y018946D01*
X006928Y018922D01*
X006913Y018896D01*
X006900Y018869D01*
X006891Y018840D01*
X006886Y018810D01*
X006884Y018780D01*
X006884Y014580D01*
X006886Y014550D01*
X006891Y014520D01*
X006900Y014491D01*
X006913Y014464D01*
X006928Y014438D01*
X006947Y014414D01*
X006968Y014393D01*
X006992Y014374D01*
X007018Y014359D01*
X007045Y014346D01*
X007074Y014337D01*
X007104Y014332D01*
X007134Y014330D01*
X008234Y018180D02*
X008864Y018180D01*
X009604Y018180D02*
X010234Y018180D01*
X012734Y017330D02*
X012734Y016580D01*
X012773Y016578D01*
X012812Y016572D01*
X012850Y016563D01*
X012887Y016550D01*
X012923Y016533D01*
X012956Y016513D01*
X012988Y016489D01*
X013017Y016463D01*
X013043Y016434D01*
X013067Y016402D01*
X013087Y016369D01*
X013104Y016333D01*
X013117Y016296D01*
X013126Y016258D01*
X013132Y016219D01*
X013134Y016180D01*
X013132Y016141D01*
X013126Y016102D01*
X013117Y016064D01*
X013104Y016027D01*
X013087Y015991D01*
X013067Y015958D01*
X013043Y015926D01*
X013017Y015897D01*
X012988Y015871D01*
X012956Y015847D01*
X012923Y015827D01*
X012887Y015810D01*
X012850Y015797D01*
X012812Y015788D01*
X012773Y015782D01*
X012734Y015780D01*
X012734Y015030D01*
X020734Y015030D01*
X020734Y017330D01*
X012734Y017330D01*
X021334Y017080D02*
X021334Y016930D01*
X021384Y016880D01*
X021384Y015480D01*
X021334Y015430D01*
X021334Y015280D01*
X021336Y015263D01*
X021340Y015246D01*
X021347Y015230D01*
X021357Y015216D01*
X021370Y015203D01*
X021384Y015193D01*
X021400Y015186D01*
X021417Y015182D01*
X021434Y015180D01*
X022034Y015180D01*
X022051Y015182D01*
X022068Y015186D01*
X022084Y015193D01*
X022098Y015203D01*
X022111Y015216D01*
X022121Y015230D01*
X022128Y015246D01*
X022132Y015263D01*
X022134Y015280D01*
X022134Y015430D01*
X022084Y015480D01*
X022084Y016880D01*
X022134Y016930D01*
X022134Y017080D01*
X022132Y017097D01*
X022128Y017114D01*
X022121Y017130D01*
X022111Y017144D01*
X022098Y017157D01*
X022084Y017167D01*
X022068Y017174D01*
X022051Y017178D01*
X022034Y017180D01*
X021434Y017180D01*
X021417Y017178D01*
X021400Y017174D01*
X021384Y017167D01*
X021370Y017157D01*
X021357Y017144D01*
X021347Y017130D01*
X021340Y017114D01*
X021336Y017097D01*
X021334Y017080D01*
X022334Y017080D02*
X022334Y016930D01*
X022384Y016880D01*
X022384Y015480D01*
X022334Y015430D01*
X022334Y015280D01*
X022336Y015263D01*
X022340Y015246D01*
X022347Y015230D01*
X022357Y015216D01*
X022370Y015203D01*
X022384Y015193D01*
X022400Y015186D01*
X022417Y015182D01*
X022434Y015180D01*
X023034Y015180D01*
X023051Y015182D01*
X023068Y015186D01*
X023084Y015193D01*
X023098Y015203D01*
X023111Y015216D01*
X023121Y015230D01*
X023128Y015246D01*
X023132Y015263D01*
X023134Y015280D01*
X023134Y015430D01*
X023084Y015480D01*
X023084Y016880D01*
X023134Y016930D01*
X023134Y017080D01*
X023132Y017097D01*
X023128Y017114D01*
X023121Y017130D01*
X023111Y017144D01*
X023098Y017157D01*
X023084Y017167D01*
X023068Y017174D01*
X023051Y017178D01*
X023034Y017180D01*
X022434Y017180D01*
X022417Y017178D01*
X022400Y017174D01*
X022384Y017167D01*
X022370Y017157D01*
X022357Y017144D01*
X022347Y017130D01*
X022340Y017114D01*
X022336Y017097D01*
X022334Y017080D01*
X023334Y017080D02*
X023334Y016930D01*
X023384Y016880D01*
X023384Y015480D01*
X023334Y015430D01*
X023334Y015280D01*
X023336Y015263D01*
X023340Y015246D01*
X023347Y015230D01*
X023357Y015216D01*
X023370Y015203D01*
X023384Y015193D01*
X023400Y015186D01*
X023417Y015182D01*
X023434Y015180D01*
X024034Y015180D01*
X024051Y015182D01*
X024068Y015186D01*
X024084Y015193D01*
X024098Y015203D01*
X024111Y015216D01*
X024121Y015230D01*
X024128Y015246D01*
X024132Y015263D01*
X024134Y015280D01*
X024134Y015430D01*
X024084Y015480D01*
X024084Y016880D01*
X024134Y016930D01*
X024134Y017080D01*
X024132Y017097D01*
X024128Y017114D01*
X024121Y017130D01*
X024111Y017144D01*
X024098Y017157D01*
X024084Y017167D01*
X024068Y017174D01*
X024051Y017178D01*
X024034Y017180D01*
X023434Y017180D01*
X023417Y017178D01*
X023400Y017174D01*
X023384Y017167D01*
X023370Y017157D01*
X023357Y017144D01*
X023347Y017130D01*
X023340Y017114D01*
X023336Y017097D01*
X023334Y017080D01*
X025734Y016930D02*
X025734Y016430D01*
X025984Y016180D01*
X025734Y015930D01*
X025734Y015430D01*
X025984Y015180D01*
X025734Y014930D01*
X025734Y014430D01*
X025984Y014180D01*
X026484Y014180D01*
X026734Y014430D01*
X026734Y014930D01*
X026484Y015180D01*
X026734Y015430D01*
X026734Y015930D01*
X026484Y016180D01*
X026734Y016430D01*
X026734Y016930D01*
X026484Y017180D01*
X026734Y017430D01*
X026734Y017930D01*
X026484Y018180D01*
X026734Y018430D01*
X026734Y018930D01*
X026484Y019180D01*
X025984Y019180D01*
X025734Y018930D01*
X025734Y018430D01*
X025984Y018180D01*
X025734Y017930D01*
X025734Y017430D01*
X025984Y017180D01*
X025734Y016930D01*
X022534Y006080D02*
X016934Y006080D01*
X016884Y006030D02*
X016884Y005330D01*
X017584Y005330D01*
X017584Y006030D01*
X016884Y006030D01*
X016934Y006080D02*
X016908Y006078D01*
X016882Y006073D01*
X016857Y006065D01*
X016834Y006053D01*
X016812Y006039D01*
X016793Y006021D01*
X016775Y006002D01*
X016761Y005980D01*
X016749Y005957D01*
X016741Y005932D01*
X016736Y005906D01*
X016734Y005880D01*
X016734Y005480D01*
X016736Y005454D01*
X016741Y005428D01*
X016749Y005403D01*
X016761Y005380D01*
X016775Y005358D01*
X016793Y005339D01*
X016812Y005321D01*
X016834Y005307D01*
X016857Y005295D01*
X016882Y005287D01*
X016908Y005282D01*
X016934Y005280D01*
X022534Y005280D01*
X022560Y005282D01*
X022586Y005287D01*
X022611Y005295D01*
X022634Y005307D01*
X022656Y005321D01*
X022675Y005339D01*
X022693Y005358D01*
X022707Y005380D01*
X022719Y005403D01*
X022727Y005428D01*
X022732Y005454D01*
X022734Y005480D01*
X022734Y005880D01*
X022732Y005906D01*
X022727Y005932D01*
X022719Y005957D01*
X022707Y005980D01*
X022693Y006002D01*
X022675Y006021D01*
X022656Y006039D01*
X022634Y006053D01*
X022611Y006065D01*
X022586Y006073D01*
X022560Y006078D01*
X022534Y006080D01*
X022484Y003680D02*
X021984Y003680D01*
X021734Y003430D01*
X021484Y003680D01*
X020984Y003680D01*
X020734Y003430D01*
X020484Y003680D01*
X019984Y003680D01*
X019734Y003430D01*
X019484Y003680D01*
X018984Y003680D01*
X018734Y003430D01*
X018484Y003680D01*
X017984Y003680D01*
X017734Y003430D01*
X017484Y003680D01*
X016984Y003680D01*
X016734Y003430D01*
X016484Y003680D01*
X015984Y003680D01*
X015734Y003430D01*
X015484Y003680D01*
X014984Y003680D01*
X014734Y003430D01*
X014484Y003680D01*
X013984Y003680D01*
X013734Y003430D01*
X013484Y003680D01*
X012984Y003680D01*
X012734Y003430D01*
X012484Y003680D01*
X011984Y003680D01*
X011734Y003430D01*
X011484Y003680D01*
X010984Y003680D01*
X010734Y003430D01*
X010484Y003680D01*
X009984Y003680D01*
X009734Y003430D01*
X009484Y003680D01*
X008984Y003680D01*
X008734Y003430D01*
X008484Y003680D01*
X007984Y003680D01*
X007734Y003430D01*
X007484Y003680D01*
X006984Y003680D01*
X006734Y003430D01*
X006734Y001930D01*
X006984Y001680D01*
X007484Y001680D01*
X007734Y001930D01*
X007984Y001680D01*
X008484Y001680D01*
X008734Y001930D01*
X008984Y001680D01*
X009484Y001680D01*
X009734Y001930D01*
X009984Y001680D01*
X010484Y001680D01*
X010734Y001930D01*
X010984Y001680D01*
X011484Y001680D01*
X011734Y001930D01*
X011984Y001680D01*
X012484Y001680D01*
X012734Y001930D01*
X012984Y001680D01*
X013484Y001680D01*
X013734Y001930D01*
X013984Y001680D01*
X014484Y001680D01*
X014734Y001930D01*
X014984Y001680D01*
X015484Y001680D01*
X015734Y001930D01*
X015984Y001680D01*
X016484Y001680D01*
X016734Y001930D01*
X016984Y001680D01*
X017484Y001680D01*
X017734Y001930D01*
X017984Y001680D01*
X018484Y001680D01*
X018734Y001930D01*
X018984Y001680D01*
X019484Y001680D01*
X019734Y001930D01*
X019984Y001680D01*
X020484Y001680D01*
X020734Y001930D01*
X020984Y001680D01*
X021484Y001680D01*
X021734Y001930D01*
X021984Y001680D01*
X022484Y001680D01*
X022734Y001930D01*
X022984Y001680D01*
X023484Y001680D01*
X023734Y001930D01*
X023734Y003430D01*
X023484Y003680D01*
X022984Y003680D01*
X022734Y003430D01*
X022484Y003680D01*
X003234Y020280D02*
X003134Y020180D01*
X002334Y020180D01*
X002234Y020280D01*
X002234Y021080D01*
X002334Y021180D01*
X002234Y021280D01*
X002234Y022080D01*
X002334Y022180D01*
X003134Y022180D01*
X003234Y022080D01*
X003234Y021280D01*
X003134Y021180D01*
X003234Y021080D01*
X003234Y020280D01*
D12*
X004530Y020349D02*
X004905Y020349D01*
X004905Y020224D01*
X005155Y020224D01*
X005155Y020349D01*
X005530Y020349D01*
X005530Y021349D01*
X004530Y021349D01*
X004530Y020349D01*
X004905Y020349D02*
X005155Y020349D01*
X005530Y020349D02*
X024530Y020349D01*
X024530Y022349D01*
X004530Y022349D01*
X004530Y021349D01*
X007259Y019870D02*
X007259Y019570D01*
X007335Y019495D01*
X007485Y019495D01*
X007560Y019570D01*
X007560Y019870D01*
X007485Y019945D01*
X007335Y019945D01*
X007259Y019870D01*
X007410Y019645D02*
X007560Y019495D01*
X007720Y019570D02*
X007795Y019495D01*
X007945Y019495D01*
X008020Y019570D01*
X008020Y019720D01*
X007870Y019720D01*
X007720Y019870D02*
X007720Y019570D01*
X007720Y019870D02*
X007795Y019945D01*
X007945Y019945D01*
X008020Y019870D01*
X008180Y019795D02*
X008330Y019945D01*
X008330Y019495D01*
X008180Y019495D02*
X008481Y019495D01*
X012109Y016201D02*
X012184Y016276D01*
X012259Y016276D01*
X012334Y016201D01*
X012409Y016276D01*
X012484Y016276D01*
X012559Y016201D01*
X012559Y016051D01*
X012484Y015976D01*
X012559Y015816D02*
X012109Y015816D01*
X012184Y015976D02*
X012109Y016051D01*
X012109Y016201D01*
X012334Y016201D02*
X012334Y016126D01*
X012559Y015816D02*
X012109Y015515D01*
X012559Y015515D01*
X012559Y015355D02*
X012409Y015205D01*
X012409Y015280D02*
X012409Y015055D01*
X012559Y015055D02*
X012109Y015055D01*
X012109Y015280D01*
X012184Y015355D01*
X012334Y015355D01*
X012409Y015280D01*
X008460Y014455D02*
X008159Y014455D01*
X008310Y014455D02*
X008310Y014905D01*
X008159Y014755D01*
X007309Y013445D02*
X007309Y013145D01*
X007309Y013295D02*
X006859Y013295D01*
X007009Y013145D01*
X006934Y012984D02*
X006859Y012909D01*
X006859Y012759D01*
X006934Y012684D01*
X007234Y012684D01*
X007309Y012759D01*
X007309Y012909D01*
X007234Y012984D01*
X003481Y013430D02*
X003405Y013355D01*
X003255Y013355D01*
X003180Y013430D01*
X003020Y013505D02*
X003020Y013805D01*
X003180Y013730D02*
X003255Y013805D01*
X003405Y013805D01*
X003481Y013730D01*
X003481Y013655D01*
X003405Y013580D01*
X003481Y013505D01*
X003481Y013430D01*
X003405Y013580D02*
X003330Y013580D01*
X003020Y013505D02*
X002870Y013355D01*
X002720Y013505D01*
X002720Y013805D01*
X002560Y013730D02*
X002485Y013805D01*
X002335Y013805D01*
X002259Y013730D01*
X002259Y013655D01*
X002335Y013580D01*
X002485Y013580D01*
X002560Y013505D01*
X002560Y013430D01*
X002485Y013355D01*
X002335Y013355D01*
X002259Y013430D01*
X002234Y013180D02*
X002234Y012980D01*
X003234Y012980D01*
X003234Y013180D01*
X002234Y013180D01*
X002234Y013145D02*
X003234Y013145D01*
X003234Y013096D02*
X002234Y013096D01*
X002234Y013048D02*
X003234Y013048D01*
X003234Y012999D02*
X002234Y012999D01*
X002234Y012380D02*
X003234Y012380D01*
X003234Y012180D01*
X002234Y012180D01*
X002234Y012380D01*
X002234Y012369D02*
X003234Y012369D01*
X003234Y012320D02*
X002234Y012320D01*
X002234Y012272D02*
X003234Y012272D01*
X003234Y012223D02*
X002234Y012223D01*
X003484Y006045D02*
X003409Y005970D01*
X003409Y005820D01*
X003484Y005745D01*
X003484Y005584D02*
X003409Y005509D01*
X003409Y005284D01*
X003859Y005284D01*
X003709Y005284D02*
X003709Y005509D01*
X003634Y005584D01*
X003484Y005584D01*
X003859Y005745D02*
X003559Y006045D01*
X003484Y006045D01*
X003859Y006045D02*
X003859Y005745D01*
X003784Y005049D02*
X003409Y005049D01*
X003409Y004974D02*
X003409Y005124D01*
X003784Y005049D02*
X003859Y004974D01*
X003859Y004899D01*
X003784Y004824D01*
X006759Y004305D02*
X006759Y003930D01*
X006835Y003855D01*
X006985Y003855D01*
X007060Y003930D01*
X007060Y004305D01*
X007220Y004230D02*
X007295Y004305D01*
X007445Y004305D01*
X007520Y004230D01*
X007680Y004230D02*
X007755Y004305D01*
X007905Y004305D01*
X007981Y004230D01*
X007981Y004155D01*
X007905Y004080D01*
X007981Y004005D01*
X007981Y003930D01*
X007905Y003855D01*
X007755Y003855D01*
X007680Y003930D01*
X007520Y003930D02*
X007520Y004005D01*
X007445Y004080D01*
X007295Y004080D01*
X007220Y004155D01*
X007220Y004230D01*
X007370Y004380D02*
X007370Y003780D01*
X007295Y003855D02*
X007220Y003930D01*
X007295Y003855D02*
X007445Y003855D01*
X007520Y003930D01*
X007830Y004080D02*
X007905Y004080D01*
X007210Y001505D02*
X007210Y001055D01*
X007360Y001055D02*
X007059Y001055D01*
X007059Y001355D02*
X007210Y001505D01*
X016359Y005505D02*
X016586Y005505D01*
X016473Y005505D02*
X016473Y005845D01*
X016359Y005732D01*
X016759Y006205D02*
X016759Y006655D01*
X016985Y006655D01*
X017060Y006580D01*
X017060Y006430D01*
X016985Y006355D01*
X016759Y006355D01*
X016910Y006355D02*
X017060Y006205D01*
X017220Y006205D02*
X017220Y006655D01*
X017520Y006205D01*
X017520Y006655D01*
X017680Y006580D02*
X017755Y006655D01*
X017905Y006655D01*
X017981Y006580D01*
X017981Y006505D01*
X017680Y006205D01*
X017981Y006205D01*
X022859Y004230D02*
X022935Y004305D01*
X023085Y004305D01*
X023160Y004230D01*
X023160Y004155D01*
X023085Y004080D01*
X023160Y004005D01*
X023160Y003930D01*
X023085Y003855D01*
X022935Y003855D01*
X022859Y003930D01*
X023010Y004080D02*
X023085Y004080D01*
X023320Y004080D02*
X023620Y004080D01*
X023545Y003855D02*
X023545Y004305D01*
X023320Y004080D01*
X025734Y018180D02*
X026734Y018180D01*
X026734Y018380D01*
X025734Y018380D01*
X025734Y018180D01*
X025734Y018189D02*
X026734Y018189D01*
X026734Y018237D02*
X025734Y018237D01*
X025734Y018286D02*
X026734Y018286D01*
X026734Y018334D02*
X025734Y018334D01*
X025734Y018980D02*
X026734Y018980D01*
X026734Y019180D01*
X025734Y019180D01*
X025734Y018980D01*
X025734Y019013D02*
X026734Y019013D01*
X026734Y019062D02*
X025734Y019062D01*
X025734Y019110D02*
X026734Y019110D01*
X026734Y019159D02*
X025734Y019159D01*
X025835Y019355D02*
X025759Y019430D01*
X025835Y019355D02*
X025985Y019355D01*
X026060Y019430D01*
X026060Y019505D01*
X025985Y019580D01*
X025835Y019580D01*
X025759Y019655D01*
X025759Y019730D01*
X025835Y019805D01*
X025985Y019805D01*
X026060Y019730D01*
X026220Y019805D02*
X026220Y019505D01*
X026370Y019355D01*
X026520Y019505D01*
X026520Y019805D01*
X026680Y019805D02*
X026680Y019580D01*
X026830Y019655D01*
X026905Y019655D01*
X026981Y019580D01*
X026981Y019430D01*
X026905Y019355D01*
X026755Y019355D01*
X026680Y019430D01*
X026680Y019805D02*
X026981Y019805D01*
D13*
X006714Y018547D02*
X006714Y018240D01*
X006714Y018393D02*
X006254Y018393D01*
X006408Y018240D01*
X006254Y018086D02*
X006254Y017933D01*
X006254Y018009D02*
X006638Y018009D01*
X006714Y017933D01*
X006714Y017856D01*
X006638Y017779D01*
X005165Y019744D02*
X004925Y019744D01*
X005045Y019744D02*
X005045Y020105D01*
X004925Y019984D01*
D14*
X005770Y018873D02*
X005770Y018243D01*
X005770Y018873D02*
X000140Y018873D01*
X000140Y015487D01*
X003270Y015487D01*
X005140Y015487D02*
X005770Y015487D01*
X005770Y016117D01*
D15*
X006634Y014080D02*
X006634Y018780D01*
X006636Y018824D01*
X006642Y018867D01*
X006651Y018909D01*
X006664Y018951D01*
X006681Y018991D01*
X006701Y019030D01*
X006724Y019067D01*
X006751Y019101D01*
X006780Y019134D01*
X006813Y019163D01*
X006847Y019190D01*
X006884Y019213D01*
X006923Y019233D01*
X006963Y019250D01*
X007005Y019263D01*
X007047Y019272D01*
X007090Y019278D01*
X007134Y019280D01*
X011334Y019280D01*
X011378Y019278D01*
X011421Y019272D01*
X011463Y019263D01*
X011505Y019250D01*
X011545Y019233D01*
X011584Y019213D01*
X011621Y019190D01*
X011655Y019163D01*
X011688Y019134D01*
X011717Y019101D01*
X011744Y019067D01*
X011767Y019030D01*
X011787Y018991D01*
X011804Y018951D01*
X011817Y018909D01*
X011826Y018867D01*
X011832Y018824D01*
X011834Y018780D01*
X011834Y014580D01*
X011832Y014536D01*
X011826Y014493D01*
X011817Y014451D01*
X011804Y014409D01*
X011787Y014369D01*
X011767Y014330D01*
X011744Y014293D01*
X011717Y014259D01*
X011688Y014226D01*
X011655Y014197D01*
X011621Y014170D01*
X011584Y014147D01*
X011545Y014127D01*
X011505Y014110D01*
X011463Y014097D01*
X011421Y014088D01*
X011378Y014082D01*
X011334Y014080D01*
X006634Y014080D01*
X006534Y012780D02*
X006234Y012780D01*
X005934Y012780D01*
X005934Y012580D02*
X006234Y012580D01*
X006534Y012580D01*
D16*
X008864Y017680D02*
X008864Y018180D01*
X008864Y018680D01*
X009104Y018680D02*
X009354Y018680D01*
X009354Y017680D01*
X009104Y017680D01*
X009104Y018680D01*
X009604Y018680D02*
X009604Y018180D01*
X009604Y017680D01*
D17*
X021734Y017255D03*
X022734Y017255D03*
X023734Y017255D03*
X023734Y015105D03*
X022734Y015105D03*
X021734Y015105D03*
D18*
X021754Y015248D02*
X021754Y015358D01*
X021791Y015395D01*
X021864Y015395D01*
X021901Y015358D01*
X021901Y015248D01*
X021901Y015321D02*
X021974Y015395D01*
X021974Y015469D02*
X021974Y015616D01*
X021974Y015542D02*
X021754Y015542D01*
X021828Y015469D01*
X021754Y015248D02*
X021974Y015248D01*
X022754Y015248D02*
X022754Y015358D01*
X022791Y015395D01*
X022864Y015395D01*
X022901Y015358D01*
X022901Y015248D01*
X022901Y015321D02*
X022974Y015395D01*
X022974Y015469D02*
X022828Y015616D01*
X022791Y015616D01*
X022754Y015579D01*
X022754Y015506D01*
X022791Y015469D01*
X022974Y015469D02*
X022974Y015616D01*
X022974Y015248D02*
X022754Y015248D01*
X023754Y015248D02*
X023754Y015358D01*
X023791Y015395D01*
X023864Y015395D01*
X023901Y015358D01*
X023901Y015248D01*
X023901Y015321D02*
X023974Y015395D01*
X023938Y015469D02*
X023974Y015506D01*
X023974Y015579D01*
X023938Y015616D01*
X023901Y015616D01*
X023864Y015579D01*
X023864Y015542D01*
X023864Y015579D02*
X023828Y015616D01*
X023791Y015616D01*
X023754Y015579D01*
X023754Y015506D01*
X023791Y015469D01*
X023754Y015248D02*
X023974Y015248D01*
M02*
